<svg width="26" height="25" viewBox="0 0 26 25" fill="none" xmlns="http://www.w3.org/2000/svg">
<path d="M14.875 2.34668C14.875 1.30957 14.0371 0.47168 13 0.47168C11.9629 0.47168 11.125 1.30957 11.125 2.34668V10.7842H2.6875C1.65039 10.7842 0.8125 11.6221 0.8125 12.6592C0.8125 13.6963 1.65039 14.5342 2.6875 14.5342H11.125V22.9717C11.125 24.0088 11.9629 24.8467 13 24.8467C14.0371 24.8467 14.875 24.0088 14.875 22.9717V14.5342H23.3125C24.3496 14.5342 25.1875 13.6963 25.1875 12.6592C25.1875 11.6221 24.3496 10.7842 23.3125 10.7842H14.875V2.34668Z" fill="currentColor"/>
</svg>
