<svg width="27" height="30" viewBox="0 0 27 30" fill="none" xmlns="http://www.w3.org/2000/svg">
<path fill-rule="evenodd" clip-rule="evenodd" d="M6.9707 0.422729H19.492C23.2199 0.422729 26.242 3.44481 26.242 7.17273V22.3602C26.242 24.1504 25.5308 25.8673 24.2649 27.1332C22.9991 28.3991 21.2822 29.1102 19.492 29.1102H6.9707C3.24278 29.1102 0.220703 26.0882 0.220703 22.3602V7.17273C0.220703 3.44481 3.24278 0.422729 6.9707 0.422729ZM23.6432 7.17273C23.634 4.8839 21.7808 3.03073 19.492 3.02148H6.9707C4.68187 3.03073 2.8287 4.8839 2.81945 7.17273V22.3602C2.8287 24.6491 4.68187 26.5022 6.9707 26.5115H19.492C21.7808 26.5022 23.634 24.6491 23.6432 22.3602V7.17273Z" fill="currentColor"/>
<path d="M18.6482 13.0452H7.81445C7.11547 13.0452 6.54883 12.4786 6.54883 11.7796C6.54883 11.0806 7.11547 10.514 7.81445 10.514H18.6482C19.3472 10.514 19.9138 11.0806 19.9138 11.7796C19.9138 12.4786 19.3472 13.0452 18.6482 13.0452Z" fill="currentColor"/>
<path d="M13.2313 21.9046C12.5323 21.9046 11.9657 22.4712 11.9657 23.1702C11.9657 23.8692 12.5323 24.4359 13.2313 24.4359C13.9303 24.4359 14.497 23.8692 14.497 23.1702C14.4879 22.475 13.9265 21.9137 13.2313 21.9046Z" fill="currentColor"/>
</svg>
