<svg width="38" height="10" viewBox="0 0 38 10" fill="none" xmlns="http://www.w3.org/2000/svg">
<g clip-path="url(#clip0_193_15358)">
<path d="M5.09911 0.0976562L1.03711 9.08566H5.89911L6.50211 7.65266H7.88011L8.48311 9.08566H13.8351V7.99266L14.3121 9.08566H17.0801L17.5571 7.96966V9.08566H28.6881L30.0421 7.69066L31.3091 9.08566L37.0261 9.09766L32.9521 4.61766L37.0261 0.0976562H31.3981L30.0801 1.46766L28.8531 0.0976562H16.7441L15.7041 2.41766L14.6401 0.0976562H9.78711V1.15466L9.24811 0.0976562H5.09911ZM6.03911 1.37366H8.41011L11.1041 7.46966V1.37366H13.7001L15.7811 5.74366L17.6991 1.37366H20.2821V7.82366H18.7101L18.6981 2.76966L16.4061 7.82366H15.0001L12.6951 2.76966V7.82366H9.46111L8.84811 6.37766H5.53611L4.92411 7.82266H3.19111L6.03911 1.37366ZM21.7211 1.37366H28.1131L30.0681 3.48566L32.0861 1.37366H34.0411L31.0701 4.61566L34.0411 7.81966H31.9971L30.0421 5.68366L28.0141 7.81966H21.7211V1.37366ZM7.19211 2.46566L6.10111 5.04166H8.28211L7.19211 2.46566ZM23.2991 2.70966V3.88666H26.7861V5.19866H23.2991V6.48466H27.2101L29.0281 4.59166L27.2871 2.70866L23.2991 2.70966Z" fill="currentColor"/>
</g>
<defs>
<clipPath id="clip0_193_15358">
<rect width="37" height="9" fill="white" transform="translate(0.600586 0.0976562)"/>
</clipPath>
</defs>
</svg>
