<svg width="24" height="25" viewBox="0 0 24 25" fill="none" xmlns="http://www.w3.org/2000/svg">
<path d="M19.8438 4.18845L19.1022 4.07635C19.0664 4.31297 19.1457 4.55246 19.3156 4.72097C19.4856 4.88949 19.7257 4.9668 19.962 4.92906L19.8438 4.18845ZM18.2891 8.64788L18.8559 8.15672C18.7184 7.99802 18.5206 7.90425 18.3107 7.89819C18.1008 7.89213 17.898 7.97436 17.7515 8.12486L18.2891 8.64788ZM8.49515 18.7139L7.95761 18.1908C7.81613 18.3362 7.7396 18.5328 7.74547 18.7356C7.75134 18.9383 7.83911 19.1301 7.98876 19.2671L8.49515 18.7139ZM4.15625 20.3117L4.89782 20.4238C4.93359 20.1872 4.85429 19.9477 4.68437 19.7792C4.51445 19.6107 4.27431 19.5334 4.03799 19.5711L4.15625 20.3117ZM5.71092 15.8523L5.14412 16.3434C5.28163 16.5021 5.47939 16.5959 5.68929 16.602C5.8992 16.608 6.10203 16.5258 6.24847 16.3753L5.71092 15.8523ZM15.5048 5.78631L16.0424 6.30932C16.1839 6.16392 16.2604 5.9674 16.2545 5.76461C16.2487 5.56182 16.1609 5.37006 16.0112 5.23307L15.5048 5.78631ZM20.5853 4.30055C20.6115 4.12747 20.625 3.95056 20.625 3.77092H19.125C19.125 3.87529 19.1172 3.97726 19.1022 4.07635L20.5853 4.30055ZM20.25 3.40633C20.0721 3.40633 19.8968 3.42047 19.7255 3.44783L19.962 4.92906C20.0555 4.91414 20.1516 4.90633 20.25 4.90633V3.40633ZM23.625 6.85425C23.625 4.96952 22.1332 3.40633 20.25 3.40633V4.90633C21.2663 4.90633 22.125 5.75894 22.125 6.85425H23.625ZM20.25 10.3022C22.1332 10.3022 23.625 8.73898 23.625 6.85425H22.125C22.125 7.94956 21.2663 8.80216 20.25 8.80216V10.3022ZM17.7223 9.13903C18.3369 9.84828 19.2398 10.3022 20.25 10.3022V8.80216C19.7006 8.80216 19.2029 8.55716 18.8559 8.15672L17.7223 9.13903ZM9.0327 19.2369L18.8266 9.17089L17.7515 8.12486L7.95761 18.1908L9.0327 19.2369ZM10.125 20.7292C10.125 19.7123 9.69278 18.7933 9.00155 18.1606L7.98876 19.2671C8.37722 19.6227 8.625 20.1434 8.625 20.7292H10.125ZM6.75 24.1772C8.6332 24.1772 10.125 22.614 10.125 20.7292H8.625C8.625 21.8246 7.7663 22.6772 6.75 22.6772V24.1772ZM3.375 20.7292C3.375 22.614 4.8668 24.1772 6.75 24.1772V22.6772C5.7337 22.6772 4.875 21.8246 4.875 20.7292H3.375ZM3.41467 20.1996C3.38851 20.3727 3.375 20.5496 3.375 20.7292H4.875C4.875 20.6249 4.88284 20.5229 4.89782 20.4238L3.41467 20.1996ZM3.75 21.0938C3.92794 21.0938 4.10316 21.0797 4.2745 21.0523L4.03799 19.5711C3.94453 19.586 3.8484 19.5938 3.75 19.5938V21.0938ZM0.375 17.6459C0.375 19.5306 1.8668 21.0938 3.75 21.0938V19.5938C2.7337 19.5938 1.875 18.7412 1.875 17.6459H0.375ZM3.75 14.198C1.8668 14.198 0.375 15.7612 0.375 17.6459H1.875C1.875 16.5506 2.7337 15.698 3.75 15.698V14.198ZM6.27773 15.3611C5.66314 14.6519 4.76019 14.198 3.75 14.198V15.698C4.29936 15.698 4.79713 15.943 5.14412 16.3434L6.27773 15.3611ZM14.9673 5.26329L5.17338 15.3293L6.24847 16.3753L16.0424 6.30932L14.9673 5.26329ZM13.875 3.77092C13.875 4.7879 14.3072 5.70683 14.9985 6.33954L16.0112 5.23307C15.6228 4.8775 15.375 4.3568 15.375 3.77092H13.875ZM17.25 0.322998C15.3668 0.322998 13.875 1.88619 13.875 3.77092H15.375C15.375 2.67561 16.2337 1.823 17.25 1.823V0.322998ZM20.625 3.77092C20.625 1.88619 19.1332 0.322998 17.25 0.322998V1.823C18.2663 1.823 19.125 2.67561 19.125 3.77092H20.625Z" fill="currentColor"/>
</svg>
