<svg width="31" height="13" viewBox="0 0 31 13" fill="none" xmlns="http://www.w3.org/2000/svg">
<g clip-path="url(#clip0_193_15377)">
<path fill-rule="evenodd" clip-rule="evenodd" d="M6.64998 0.387695C6.71298 0.963695 6.48298 1.5177 6.15798 1.9377V1.9277C5.82298 2.3357 5.27798 2.6597 4.74398 2.6077C4.67098 2.0627 4.94298 1.4767 5.24698 1.1207C5.58198 0.712695 6.16798 0.408695 6.64998 0.387695ZM14.441 1.0777C16.137 1.0777 17.32 2.2727 17.32 3.9997C17.32 5.7377 16.116 6.9317 14.399 6.9317H12.514V9.9687H11.153V1.0777H14.441ZM17.655 8.1357C17.655 6.9957 18.513 6.3457 20.084 6.2407L21.78 6.1367V5.6437C21.78 4.9217 21.309 4.5237 20.482 4.5237C19.801 4.5237 19.299 4.8797 19.194 5.4347H17.969C18 4.2827 19.068 3.4447 20.513 3.4447C22.063 3.4447 23.079 4.2727 23.079 5.5497V9.9797H21.822V8.9097H21.791C21.435 9.6007 20.639 10.0407 19.791 10.0407C18.534 10.0407 17.644 9.2767 17.644 8.1347L17.655 8.1357ZM24.241 12.3557V11.2877C24.325 11.2977 24.535 11.3087 24.639 11.3087C25.236 11.3087 25.582 11.0477 25.791 10.3877L25.917 9.9897L23.613 3.5187H25.037L26.639 8.7647H26.671L28.273 3.5187H29.655L27.267 10.3147C26.723 11.8747 26.095 12.3877 24.775 12.3877C24.671 12.3877 24.336 12.3777 24.252 12.3457L24.241 12.3557ZM21.781 7.0577V7.5607L21.792 7.5397C21.792 8.3767 21.09 8.9737 20.169 8.9737C19.446 8.9737 18.985 8.6287 18.985 8.0837C18.985 7.5287 19.425 7.2037 20.273 7.1517L21.781 7.0577ZM14.075 5.7697H12.515V2.2417H14.075C15.258 2.2417 15.928 2.8797 15.928 4.0007C15.928 5.1207 15.258 5.7697 14.075 5.7697ZM6.63998 2.7227C6.16098 2.6907 5.72998 2.8647 5.37998 3.0057C5.15598 3.0957 4.96498 3.1727 4.81798 3.1727C4.65398 3.1727 4.45498 3.0927 4.23198 3.0017C3.94098 2.8827 3.60698 2.7477 3.25798 2.7537C2.45098 2.7637 1.70798 3.2247 1.29898 3.9577C0.461978 5.4237 1.07998 7.6127 1.89598 8.8057C2.29398 9.4027 2.77598 10.0517 3.40398 10.0307C3.68198 10.0207 3.87998 9.9367 4.08598 9.8487C4.32198 9.7487 4.56798 9.64369 4.95398 9.64369C5.32398 9.64369 5.55998 9.7457 5.78598 9.8437C6.00098 9.9367 6.20798 10.0257 6.51398 10.0207C7.16298 10.0107 7.57198 9.4237 7.96898 8.8377C8.24685 8.42038 8.46433 7.96589 8.61498 7.4877L8.61898 7.4767L8.60498 7.4697C8.46698 7.4047 7.36198 6.8877 7.35198 5.5177C7.34198 4.3607 8.22998 3.7827 8.36298 3.6957L8.37798 3.6857C7.82298 2.8477 6.94298 2.7537 6.63998 2.7227Z" fill="currentColor"/>
</g>
<defs>
<clipPath id="clip0_193_15377">
<rect width="30" height="12" fill="white" transform="translate(0.473633 0.387695)"/>
</clipPath>
</defs>
</svg>
