<svg width="33" height="33" viewBox="0 0 33 33" fill="none" xmlns="http://www.w3.org/2000/svg">
<g clip-path="url(#clip0_185_1521)">
<rect x="0.853516" y="0.565308" width="32" height="32" rx="16" fill="#F3F4F6"/>
<mask id="mask0_185_1521" style="mask-type:alpha" maskUnits="userSpaceOnUse" x="0" y="0" width="33" height="33">
<circle cx="16.8535" cy="16.5653" r="16" fill="#F3F4F6"/>
</mask>
<g mask="url(#mask0_185_1521)">
<path d="M32.8535 28.5573V32.5666H0.853516V28.5719C2.71478 26.0845 5.13073 24.0657 7.90923 22.676C10.6877 21.2863 13.7522 20.564 16.8588 20.5666C23.3975 20.5666 29.2055 23.7053 32.8535 28.5573ZM22.1895 12.5653C22.1895 13.9798 21.6276 15.3363 20.6274 16.3365C19.6272 17.3367 18.2707 17.8986 16.8562 17.8986C15.4417 17.8986 14.0851 17.3367 13.0849 16.3365C12.0848 15.3363 11.5228 13.9798 11.5228 12.5653C11.5228 11.1508 12.0848 9.79422 13.0849 8.79403C14.0851 7.79384 15.4417 7.23193 16.8562 7.23193C18.2707 7.23193 19.6272 7.79384 20.6274 8.79403C21.6276 9.79422 22.1895 11.1508 22.1895 12.5653Z" fill="currentColor"/>
</g>
</g>
<defs>
<clipPath id="clip0_185_1521">
<rect x="0.853516" y="0.565308" width="32" height="32" rx="16" fill="white"/>
</clipPath>
</defs>
</svg>
