<svg width="24" height="25" viewBox="0 0 24 25" fill="none" xmlns="http://www.w3.org/2000/svg">
<path d="M12.0001 2.8999C10.0905 2.8999 8.25918 3.65847 6.90892 5.00873C5.55866 6.359 4.80009 8.19034 4.80009 10.0999V14.4031L3.95169 15.2515C3.78391 15.4193 3.66967 15.6331 3.62339 15.8659C3.5771 16.0986 3.60087 16.3398 3.69167 16.5591C3.78248 16.7783 3.93624 16.9657 4.13354 17.0976C4.33083 17.2294 4.56279 17.2999 4.80009 17.2999H19.2001C19.4374 17.2999 19.6693 17.2294 19.8666 17.0976C20.0639 16.9657 20.2177 16.7783 20.3085 16.5591C20.3993 16.3398 20.4231 16.0986 20.3768 15.8659C20.3305 15.6331 20.2163 15.4193 20.0485 15.2515L19.2001 14.4031V10.0999C19.2001 8.19034 18.4415 6.359 17.0913 5.00873C15.741 3.65847 13.9096 2.8999 12.0001 2.8999ZM12.0001 22.0999C11.0453 22.0999 10.1296 21.7206 9.4545 21.0455C8.77937 20.3704 8.40009 19.4547 8.40009 18.4999H15.6001C15.6001 19.4547 15.2208 20.3704 14.5457 21.0455C13.8705 21.7206 12.9549 22.0999 12.0001 22.0999Z" fill="currentColor"/>
</svg>
