<svg width="20" height="24" viewBox="0 0 20 24" fill="none" xmlns="http://www.w3.org/2000/svg">
<g clip-path="url(#clip0_247_15052)">
<path d="M15.5983 2.22865C15.8616 1.61322 15.6652 0.894474 15.125 0.499161C14.5849 0.103849 13.8483 0.139786 13.3438 0.580021L1.91522 10.6425C1.46879 11.0378 1.30807 11.6712 1.51789 12.2283C1.72772 12.7853 2.26343 13.1626 2.85718 13.1626H7.83486L4.40182 21.2216C4.13843 21.837 4.33486 22.5558 4.87504 22.9511C5.41522 23.3464 6.15182 23.3105 6.65629 22.8703L18.0849 12.8078C18.5313 12.4124 18.692 11.779 18.4822 11.222C18.2724 10.665 17.7411 10.2921 17.1429 10.2921H12.1652L15.5983 2.22865Z" fill="url(#paint0_linear_247_15052)"/>
</g>
<defs>
<linearGradient id="paint0_linear_247_15052" x1="14.0608" y1="0.224732" x2="4.60125" y2="23.2255" gradientUnits="userSpaceOnUse">
<stop stop-color="#621FFF"/>
<stop offset="1" stop-color="#FE7C48"/>
</linearGradient>
<clipPath id="clip0_247_15052">
<rect width="20" height="23" fill="white" transform="translate(0 0.225098)"/>
</clipPath>
</defs>
</svg>
