<svg width="29" height="26" viewBox="0 0 29 26" fill="none" xmlns="http://www.w3.org/2000/svg">
<g clip-path="url(#clip0_193_14875)">
<path d="M20.2633 3.21657C20.5267 2.60114 20.3303 1.88239 19.7901 1.48708C19.2499 1.09176 18.5133 1.1277 18.0088 1.56794L6.58025 11.6304C6.13383 12.0257 5.97311 12.6591 6.18293 13.2162C6.39275 13.7732 6.92847 14.1506 7.52222 14.1506H12.4999L9.06686 22.2095C8.80347 22.825 8.9999 23.5437 9.54008 23.939C10.0803 24.3343 10.8169 24.2984 11.3213 23.8582L22.7499 13.7957C23.1963 13.4004 23.357 12.767 23.1472 12.2099C22.9374 11.6529 22.4061 11.28 21.8079 11.28H16.8303L20.2633 3.21657Z" fill="currentColor"/>
</g>
<defs>
<clipPath id="clip0_193_14875">
<rect width="20" height="23" fill="white" transform="translate(4.66504 1.21313)"/>
</clipPath>
</defs>
</svg>
