<svg width="13" height="18" viewBox="0 0 13 18" fill="none" xmlns="http://www.w3.org/2000/svg">
<path fill-rule="evenodd" clip-rule="evenodd" d="M3.09443 0.753977H9.73889C10.5196 0.714077 11.2846 0.975686 11.8652 1.48107C12.4457 1.98645 12.7941 2.69406 12.8333 3.44772V16.33C12.8344 16.588 12.7227 16.8345 12.5258 17.0089C12.3289 17.1833 12.0649 17.2695 11.7987 17.2463C11.5654 17.2463 11.3386 17.1722 11.1532 17.0355L7.04314 14.0211C6.65502 13.7401 6.12135 13.7401 5.73323 14.0211L1.66112 17.0355C1.48093 17.1685 1.26141 17.2423 1.03465 17.2463C0.768457 17.2695 0.504461 17.1833 0.307515 17.0089C0.110568 16.8345 -0.00107702 16.588 7.83316e-06 16.33V3.44772C0.0392637 2.69406 0.387608 1.98645 0.968162 1.48107C1.54872 0.975686 2.31375 0.714077 3.09443 0.753977ZM7.9259 12.9308L11.3905 15.4963L11.3715 3.44772C11.2817 2.64891 10.5497 2.06412 9.71991 2.12834H3.07544C2.24569 2.06412 1.51365 2.64891 1.42382 3.44772V15.4963L4.88843 12.9308C5.78555 12.271 7.02878 12.271 7.9259 12.9308Z" fill="currentColor"/>
</svg>
