<svg width="31" height="33" viewBox="0 0 31 33" fill="none" xmlns="http://www.w3.org/2000/svg">
<path d="M22.3516 11.24H8.85156C8.23024 11.24 7.72656 11.7437 7.72656 12.365C7.72656 12.9863 8.23024 13.49 8.85156 13.49H22.3516C22.9729 13.49 23.4766 12.9863 23.4766 12.365C23.4766 11.7437 22.9729 11.24 22.3516 11.24Z" fill="currentColor"/>
<path fill-rule="evenodd" clip-rule="evenodd" d="M22.9366 4.355H23.1016C27.2437 4.355 30.6016 7.71286 30.6016 11.855V25.355C30.6016 29.4971 27.2437 32.855 23.1016 32.855H8.10156C6.11244 32.855 4.20478 32.0648 2.79826 30.6583C1.39174 29.2518 0.601562 27.3441 0.601562 25.355V11.855C0.601562 7.71286 3.95943 4.355 8.10156 4.355H8.23656V1.625C8.23656 1.00368 8.74024 0.5 9.36156 0.5C9.98288 0.5 10.4866 1.00368 10.4866 1.625V4.355H20.6866V1.625C20.6866 1.00368 21.1902 0.5 21.8116 0.5C22.4329 0.5 22.9366 1.00368 22.9366 1.625V4.355ZM23.1016 30.605C26.0011 30.605 28.3516 28.2545 28.3516 25.355V11.855C28.3516 8.95551 26.0011 6.605 23.1016 6.605H8.10156C5.20207 6.605 2.85156 8.95551 2.85156 11.855V25.355C2.85156 28.2545 5.20207 30.605 8.10156 30.605H23.1016Z" fill="currentColor"/>
</svg>
