<svg width="21" height="21" viewBox="0 0 21 21" fill="none" xmlns="http://www.w3.org/2000/svg">
<path fill-rule="evenodd" clip-rule="evenodd" d="M4.7106 0.392334H16.2939C18.9326 0.482897 21.0008 2.69088 20.9189 5.32983V12.1215C20.9582 13.396 20.4878 14.6336 19.6119 15.5603C18.7361 16.487 17.527 17.0263 16.2523 17.059H6.3356C5.64934 17.0732 4.99854 17.3666 4.53352 17.8715L2.06477 20.5069C1.85561 20.735 1.56172 20.8669 1.25227 20.8715C0.932665 20.8634 0.629576 20.7278 0.410458 20.495C0.191341 20.2622 0.0743792 19.9514 0.0856032 19.6319V5.32983C0.00369471 2.69088 2.07193 0.482897 4.7106 0.392334ZM16.2939 15.4965C18.0699 15.4066 19.439 13.8978 19.3564 12.1215V5.32983C19.439 3.5535 18.0699 2.0447 16.2939 1.95483H4.7106C2.93462 2.0447 1.56552 3.5535 1.6481 5.32983V18.6632L3.34602 16.809C4.1225 15.983 5.20202 15.5091 6.3356 15.4965H16.2939Z" fill="currentColor"/>
<path d="M6.59602 7.42358H11.8044C12.2358 7.42358 12.5856 7.07381 12.5856 6.64233C12.5856 6.21086 12.2358 5.86108 11.8044 5.86108H6.59602C6.16454 5.86108 5.81477 6.21086 5.81477 6.64233C5.81477 7.07381 6.16454 7.42358 6.59602 7.42358Z" fill="currentColor"/>
<path d="M14.4085 10.0278H6.59602C6.16455 10.0278 5.81477 10.3775 5.81477 10.809C5.81477 11.2405 6.16455 11.5903 6.59602 11.5903H14.4085C14.84 11.5903 15.1898 11.2405 15.1898 10.809C15.1898 10.3775 14.84 10.0278 14.4085 10.0278Z" fill="currentColor"/>
</svg>
