<svg width="22" height="23" viewBox="0 0 22 23" fill="currentColor" xmlns="http://www.w3.org/2000/svg">
<path d="M11 22.7671C13.9174 22.7671 16.7153 21.6082 18.7782 19.5453C20.8411 17.4824 22 14.6845 22 11.7671C22 8.84971 20.8411 6.05182 18.7782 3.98892C16.7153 1.92602 13.9174 0.76709 11 0.76709C8.08262 0.76709 5.28473 1.92602 3.22183 3.98892C1.15893 6.05182 0 8.84971 0 11.7671C0 14.6845 1.15893 17.4824 3.22183 19.5453C5.28473 21.6082 8.08262 22.7671 11 22.7671ZM15.8555 9.74756L10.3555 15.2476C9.95156 15.6515 9.29844 15.6515 8.89883 15.2476L6.14883 12.4976C5.74492 12.0937 5.74492 11.4405 6.14883 11.0409C6.55273 10.6413 7.20586 10.637 7.60547 11.0409L9.625 13.0604L14.3945 8.28662C14.7984 7.88271 15.4516 7.88271 15.8512 8.28662C16.2508 8.69053 16.2551 9.34365 15.8512 9.74326L15.8555 9.74756Z" fill="currentColor"/>
</svg>
