<svg width="18" height="22" viewBox="0 0 18 22" fill="none" xmlns="http://www.w3.org/2000/svg">
<g clip-path="url(#clip0_248_15631)">
<path d="M9 0C7.04063 0 5.37187 1.14727 4.75781 2.75H3C1.34531 2.75 0 3.9832 0 5.5V19.25C0 20.7668 1.34531 22 3 22H15C16.6547 22 18 20.7668 18 19.25V5.5C18 3.9832 16.6547 2.75 15 2.75H13.2422C12.6281 1.14727 10.9594 0 9 0ZM9 2.75C9.39782 2.75 9.77936 2.89487 10.0607 3.15273C10.342 3.41059 10.5 3.76033 10.5 4.125C10.5 4.48967 10.342 4.83941 10.0607 5.09727C9.77936 5.35513 9.39782 5.5 9 5.5C8.60218 5.5 8.22064 5.35513 7.93934 5.09727C7.65804 4.83941 7.5 4.48967 7.5 4.125C7.5 3.76033 7.65804 3.41059 7.93934 3.15273C8.22064 2.89487 8.60218 2.75 9 2.75ZM14.2969 11.7305L8.29688 17.2305C7.85625 17.6344 7.14375 17.6344 6.70781 17.2305L3.70312 14.4805C3.2625 14.0766 3.2625 13.4234 3.70312 13.0238C4.14375 12.6242 4.85625 12.6199 5.29219 13.0238L7.49531 15.0434L12.7031 10.2695C13.1438 9.86563 13.8562 9.86563 14.2922 10.2695C14.7281 10.6734 14.7328 11.3266 14.2922 11.7262L14.2969 11.7305Z" fill="currentColor"/>
</g>
<defs>
<clipPath id="clip0_248_15631">
<rect width="18" height="22" fill="white"/>
</clipPath>
</defs>
</svg>
