<svg width="81" height="64" viewBox="0 0 81 64" fill="none" xmlns="http://www.w3.org/2000/svg">
<path d="M0.933594 9.5H80.9336C80.9336 4.53594 76.9475 0.5 72.0447 0.5H9.82248C4.91971 0.5 0.933594 4.53594 0.933594 9.5ZM0.933594 14V54.5C0.933594 59.4641 4.91971 63.5 9.82248 63.5H72.0447C76.9475 63.5 80.9336 59.4641 80.9336 54.5V14H0.933594ZM9.82248 52.9953C9.82248 48.8469 13.1419 45.5 17.2253 45.5H33.5308C37.628 45.5 40.9336 48.8609 40.9336 52.9953C40.9336 53.825 40.2669 54.5 39.4475 54.5H11.3086C10.4891 54.5 9.82248 53.825 9.82248 52.9953ZM25.378 23C27.7355 23 29.9964 23.9482 31.6634 25.636C33.3304 27.3239 34.2669 29.6131 34.2669 32C34.2669 34.3869 33.3304 36.6761 31.6634 38.364C29.9964 40.0518 27.7355 41 25.378 41C23.0206 41 20.7596 40.0518 19.0926 38.364C17.4257 36.6761 16.4892 34.3869 16.4892 32C16.4892 29.6131 17.4257 27.3239 19.0926 25.636C20.7596 23.9482 23.0206 23 25.378 23ZM49.8225 25.25C49.8225 24.0125 50.8225 23 52.0447 23H69.8225C71.0447 23 72.0447 24.0125 72.0447 25.25C72.0447 26.4875 71.0447 27.5 69.8225 27.5H52.0447C50.8225 27.5 49.8225 26.4875 49.8225 25.25ZM49.8225 34.25C49.8225 33.0125 50.8225 32 52.0447 32H69.8225C71.0447 32 72.0447 33.0125 72.0447 34.25C72.0447 35.4875 71.0447 36.5 69.8225 36.5H52.0447C50.8225 36.5 49.8225 35.4875 49.8225 34.25ZM49.8225 43.25C49.8225 42.0125 50.8225 41 52.0447 41H69.8225C71.0447 41 72.0447 42.0125 72.0447 43.25C72.0447 44.4875 71.0447 45.5 69.8225 45.5H52.0447C50.8225 45.5 49.8225 44.4875 49.8225 43.25Z" fill="currentcolor"/>
</svg>
