<svg width="23" height="21" viewBox="0 0 23 21" fill="none" xmlns="http://www.w3.org/2000/svg">
<g clip-path="url(#clip0_87_3467)">
<path d="M11.1338 19.0464C8.0477 19.0464 5.57652 17.6089 3.77756 15.898C1.99006 14.2027 0.794575 12.1714 0.229297 10.7769C0.103255 10.4683 0.103255 10.1246 0.229297 9.81598C0.794575 8.42145 1.99006 6.3902 3.77756 4.69489C5.57652 2.98395 8.0477 1.54645 11.1338 1.54645C14.2199 1.54645 16.6911 2.98395 18.4901 4.69489C20.2776 6.3941 21.473 8.42145 22.0421 9.81598C22.1682 10.1246 22.1682 10.4683 22.0421 10.7769C21.473 12.1714 20.2776 14.2027 18.4901 15.898C16.6911 17.6089 14.2199 19.0464 11.1338 19.0464ZM5.63381 10.2964C5.63381 11.7883 6.21327 13.219 7.24472 14.2739C8.27617 15.3288 9.67512 15.9214 11.1338 15.9214C12.5925 15.9214 13.9914 15.3288 15.0229 14.2739C16.0543 13.219 16.6338 11.7883 16.6338 10.2964C16.6338 8.80461 16.0543 7.37387 15.0229 6.31897C13.9914 5.26408 12.5925 4.67145 11.1338 4.67145C9.67512 4.67145 8.27617 5.26408 7.24472 6.31897C6.21327 7.37387 5.63381 8.80461 5.63381 10.2964ZM11.1338 12.7964C11.1338 11.4175 10.0376 10.2964 8.68937 10.2964C8.41819 10.2964 8.15846 10.3433 7.91402 10.4254C7.70395 10.4957 7.45951 10.3629 7.46714 10.1363C7.4786 9.86676 7.5168 9.59723 7.58937 9.3277C8.11263 7.3277 10.1255 6.1402 12.081 6.67535C14.0366 7.21051 15.1977 9.2691 14.6744 11.2691C14.2505 12.8902 12.8487 13.98 11.2904 14.0464C11.0689 14.0543 10.939 13.8082 11.0078 13.5894C11.088 13.3394 11.1338 13.0738 11.1338 12.7964Z" fill="currentColor"/>
</g>
<defs>
<clipPath id="clip0_87_3467">
<rect width="22" height="20" fill="white" transform="matrix(1 0 0 -1 0.134766 20.2964)"/>
</clipPath>
</defs>
</svg>
