<svg width="18" height="19" viewBox="0 0 18 19" fill="none" xmlns="http://www.w3.org/2000/svg">
<path fill-rule="evenodd" clip-rule="evenodd" d="M0 9.96777C0 14.4178 3.25 18.1178 7.5 18.8678L7.55017 18.8276C7.53344 18.8244 7.51672 18.8211 7.5 18.8178V12.4678H5.25V9.96777H7.5V7.96777C7.5 5.71777 8.95 4.46777 11 4.46777C11.65 4.46777 12.35 4.56777 13 4.66777V6.96777H11.85C10.75 6.96777 10.5 7.51777 10.5 8.21777V9.96777H12.9L12.5 12.4678H10.5V18.8178C10.4833 18.8211 10.4666 18.8244 10.4498 18.8276L10.5 18.8678C14.75 18.1178 18 14.4178 18 9.96777C18 5.01777 13.95 0.967773 9 0.967773C4.05 0.967773 0 5.01777 0 9.96777Z" fill="currentColor"/>
</svg>
