<svg width="17" height="17" viewBox="0 0 17 17" fill="none" xmlns="http://www.w3.org/2000/svg">
<path d="M15.1094 8.15869C15.1094 6.43478 14.4246 4.78148 13.2056 3.5625C11.9866 2.34351 10.3333 1.65869 8.60938 1.65869C6.88547 1.65869 5.23217 2.34351 4.01318 3.5625C2.79419 4.78148 2.10938 6.43478 2.10938 8.15869C2.10938 9.8826 2.79419 11.5359 4.01318 12.7549C5.23217 13.9739 6.88547 14.6587 8.60938 14.6587C10.3333 14.6587 11.9866 13.9739 13.2056 12.7549C14.4246 11.5359 15.1094 9.8826 15.1094 8.15869ZM0.609375 8.15869C0.609375 6.03696 1.45223 4.00213 2.95252 2.50184C4.45281 1.00155 6.48764 0.158691 8.60938 0.158691C10.7311 0.158691 12.7659 1.00155 14.2662 2.50184C15.7665 4.00213 16.6094 6.03696 16.6094 8.15869C16.6094 10.2804 15.7665 12.3153 14.2662 13.8155C12.7659 15.3158 10.7311 16.1587 8.60938 16.1587C6.48764 16.1587 4.45281 15.3158 2.95252 13.8155C1.45223 12.3153 0.609375 10.2804 0.609375 8.15869ZM6.15938 10.0993C6.63438 10.6118 7.44688 11.1587 8.60938 11.1587C9.77188 11.1587 10.5844 10.6118 11.0594 10.0993C11.3406 9.79619 11.8156 9.77432 12.1187 10.0556C12.4219 10.3368 12.4438 10.8118 12.1625 11.1149C11.475 11.8587 10.2875 12.6587 8.6125 12.6587C6.9375 12.6587 5.74687 11.8618 5.0625 11.1149C4.78125 10.8118 4.8 10.3368 5.10625 10.0556C5.4125 9.77432 5.88438 9.79307 6.16563 10.0993H6.15938ZM5.12187 6.65869C5.12187 6.39348 5.22723 6.13912 5.41477 5.95158C5.6023 5.76405 5.85666 5.65869 6.12187 5.65869C6.38709 5.65869 6.64145 5.76405 6.82898 5.95158C7.01652 6.13912 7.12187 6.39348 7.12187 6.65869C7.12187 6.92391 7.01652 7.17826 6.82898 7.3658C6.64145 7.55333 6.38709 7.65869 6.12187 7.65869C5.85666 7.65869 5.6023 7.55333 5.41477 7.3658C5.22723 7.17826 5.12187 6.92391 5.12187 6.65869ZM11.1219 5.65869C11.3871 5.65869 11.6414 5.76405 11.829 5.95158C12.0165 6.13912 12.1219 6.39348 12.1219 6.65869C12.1219 6.92391 12.0165 7.17826 11.829 7.3658C11.6414 7.55333 11.3871 7.65869 11.1219 7.65869C10.8567 7.65869 10.6023 7.55333 10.4148 7.3658C10.2272 7.17826 10.1219 6.92391 10.1219 6.65869C10.1219 6.39348 10.2272 6.13912 10.4148 5.95158C10.6023 5.76405 10.8567 5.65869 11.1219 5.65869Z" fill="currentColor"/>
</svg>
