<svg width="25" height="24" viewBox="0 0 25 24" fill="none" xmlns="http://www.w3.org/2000/svg">
<path fill-rule="evenodd" clip-rule="evenodd" d="M12.4646 19.804C13.9475 19.0348 19.0665 16.0163 19.0665 11C19.0665 7.13401 15.9325 4 12.0665 4C8.20054 4 5.06653 7.13401 5.06653 11C5.06653 16.0163 10.1856 19.0348 11.6685 19.804C11.9214 19.9351 12.2117 19.9351 12.4646 19.804ZM12.0665 14C13.7234 14 15.0665 12.6569 15.0665 11C15.0665 9.34315 13.7234 8 12.0665 8C10.4097 8 9.06653 9.34315 9.06653 11C9.06653 12.6569 10.4097 14 12.0665 14Z" fill="#621FFF"/>
</svg>
