<svg width="27" height="26" viewBox="0 0 27 26" fill="none" xmlns="http://www.w3.org/2000/svg">
<path d="M10.2566 3.13083H1.25656C0.635243 3.13083 0.131564 3.63451 0.131564 4.25583C0.131564 4.87715 0.635243 5.38083 1.25656 5.38083H10.2566C10.8779 5.38083 11.3816 4.87715 11.3816 4.25583C11.3816 3.63451 10.8779 3.13083 10.2566 3.13083Z" fill="currentColor"/>
<path fill-rule="evenodd" clip-rule="evenodd" d="M4.12156 14.2158H1.25656C0.635243 14.2158 0.131564 13.7121 0.131564 13.0908C0.131564 12.4695 0.635243 11.9658 1.25656 11.9658H4.12156C4.66881 10.4335 6.23932 9.5172 7.84258 9.7949C9.44584 10.0726 10.6167 11.4637 10.6167 13.0908C10.6167 14.718 9.44584 16.1091 7.84258 16.3868C6.23932 16.6644 4.66881 15.7482 4.12156 14.2158ZM7.25657 14.1858C7.86132 14.1858 8.35157 13.6956 8.35157 13.0908C8.35157 12.4861 7.86132 11.9958 7.25657 11.9958C6.96615 11.9958 6.68764 12.1112 6.48228 12.3165C6.27693 12.5219 6.16157 12.8004 6.16157 13.0908C6.16157 13.6956 6.65181 14.1858 7.25657 14.1858Z" fill="currentColor"/>
<path fill-rule="evenodd" clip-rule="evenodd" d="M18.8366 5.32083C18.3242 6.53115 17.1505 7.32926 15.8366 7.36083V7.25583C14.0971 7.26249 12.6429 5.93489 12.4915 4.20206C12.34 2.46922 13.542 0.909507 15.2562 0.614356C16.9704 0.319204 18.6247 1.38713 19.0616 3.07083C19.1263 3.06234 19.1918 3.06234 19.2566 3.07083H25.1816C25.8029 3.07083 26.3066 3.5745 26.3066 4.19583C26.3066 4.81715 25.8029 5.32083 25.1816 5.32083H19.1816C19.067 5.3351 18.9511 5.3351 18.8366 5.32083ZM16.9371 3.90627C16.9105 3.31881 16.4246 2.85726 15.8366 2.86083V2.92083C15.5353 2.92424 15.2487 3.05165 15.0444 3.27304C14.84 3.49443 14.7359 3.79024 14.7566 4.09083C14.8291 4.6744 15.3496 5.0965 15.9355 5.0469C16.5215 4.99731 16.9637 4.49373 16.9371 3.90627Z" fill="currentColor"/>
<path d="M10.2566 21.2808H1.25656C0.618674 21.2808 0.101562 21.7979 0.101562 22.4358C0.101562 23.0737 0.618674 23.5908 1.25656 23.5908H10.2566C10.8779 23.5908 11.3816 23.0871 11.3816 22.4658C11.3816 21.8445 10.8779 21.3408 10.2566 21.3408V21.2808Z" fill="currentColor"/>
<path fill-rule="evenodd" clip-rule="evenodd" d="M19.4516 21.2808H25.2566V21.3408C25.8779 21.3408 26.3816 21.8445 26.3816 22.4658C26.3816 23.0871 25.8779 23.5908 25.2566 23.5908H19.2566C18.5703 25.0494 16.9379 25.8071 15.3809 25.3896C13.824 24.9721 12.7896 23.4994 12.9252 21.8931C13.0608 20.2869 14.3274 19.0084 15.9323 18.8578C17.5372 18.7072 19.0196 19.7278 19.4516 21.2808ZM15.2343 22.5954C15.4085 23.004 15.8124 23.2669 16.2566 23.2608C16.8555 23.2526 17.3366 22.7648 17.3366 22.1658C17.3365 21.7216 17.0681 21.3214 16.6571 21.1528C16.2461 20.9843 15.7739 21.0807 15.462 21.397C15.15 21.7133 15.0601 22.1867 15.2343 22.5954Z" fill="currentColor"/>
<path d="M25.2566 11.9658H13.2566C12.6352 11.9658 12.1316 12.4695 12.1316 13.0908C12.1316 13.7121 12.6352 14.2158 13.2566 14.2158H25.2566C25.8779 14.2158 26.3816 13.7121 26.3816 13.0908C26.3816 12.4695 25.8779 11.9658 25.2566 11.9658Z" fill="currentColor"/>
</svg>
