<svg width="28" height="33" viewBox="0 0 28 33" fill="none" xmlns="http://www.w3.org/2000/svg">
<path d="M23.8062 6.2584C21.1875 3.55137 17.7 2.0625 13.9937 2.0625C6.34375 2.0625 0.11875 8.48203 0.11875 16.3711C0.11875 18.8912 0.75625 21.3533 1.96875 23.5254L0 30.9375L7.35625 28.9459C9.38125 30.0867 11.6625 30.6861 13.9875 30.6861H13.9937C21.6375 30.6861 28 24.2666 28 16.3775C28 12.5555 26.425 8.96543 23.8062 6.2584ZM13.9937 28.2756C11.9187 28.2756 9.8875 27.702 8.11875 26.6191L7.7 26.3613L3.3375 27.5408L4.5 23.1516L4.225 22.7004C3.06875 20.8055 2.4625 18.6205 2.4625 16.3711C2.4625 9.81621 7.6375 4.47949 14 4.47949C17.0812 4.47949 19.975 5.71699 22.15 7.96641C24.325 10.2158 25.6625 13.2 25.6562 16.3775C25.6562 22.9389 20.35 28.2756 13.9937 28.2756ZM20.3188 19.3682C19.975 19.1877 18.2688 18.324 17.95 18.208C17.6313 18.0855 17.4 18.0275 17.1688 18.3885C16.9375 18.7494 16.275 19.5486 16.0688 19.7936C15.8688 20.032 15.6625 20.0643 15.3188 19.8838C13.2812 18.8332 11.9438 18.0082 10.6 15.6299C10.2438 14.9982 10.9562 15.0434 11.6187 13.677C11.7312 13.4385 11.675 13.2322 11.5875 13.0518C11.5 12.8713 10.8063 11.1117 10.5188 10.3963C10.2375 9.7002 9.95 9.79688 9.7375 9.78398C9.5375 9.77109 9.30625 9.77109 9.075 9.77109C8.84375 9.77109 8.46875 9.86133 8.15 10.2158C7.83125 10.5768 6.9375 11.4404 6.9375 13.2C6.9375 14.9596 8.18125 16.6611 8.35 16.8996C8.525 17.1381 10.7937 20.7475 14.275 22.3008C16.475 23.2805 17.3375 23.3643 18.4375 23.1967C19.1063 23.0936 20.4875 22.333 20.775 21.4951C21.0625 20.6572 21.0625 19.9418 20.975 19.7936C20.8938 19.6324 20.6625 19.5422 20.3188 19.3682Z" fill="#0E131F"/>
</svg>
