<svg width="18" height="25" viewBox="0 0 18 25" fill="none" xmlns="http://www.w3.org/2000/svg">
<path d="M10.1114 24.1307C12.5161 21.1213 18.0005 13.8275 18.0005 9.73065C18.0005 4.7619 13.9692 0.730652 9.00049 0.730652C4.03174 0.730652 0.000488281 4.7619 0.000488281 9.73065C0.000488281 13.8275 5.48486 21.1213 7.88955 24.1307C8.46611 24.8478 9.53486 24.8478 10.1114 24.1307ZM9.00049 6.73065C9.79614 6.73065 10.5592 7.04672 11.1218 7.60933C11.6844 8.17194 12.0005 8.935 12.0005 9.73065C12.0005 10.5263 11.6844 11.2894 11.1218 11.852C10.5592 12.4146 9.79614 12.7307 9.00049 12.7307C8.20484 12.7307 7.44178 12.4146 6.87917 11.852C6.31656 11.2894 6.00049 10.5263 6.00049 9.73065C6.00049 8.935 6.31656 8.17194 6.87917 7.60933C7.44178 7.04672 8.20484 6.73065 9.00049 6.73065Z" fill="#621FFF"/>
</svg>
