<svg width="30" height="13" viewBox="0 0 30 13" fill="none" xmlns="http://www.w3.org/2000/svg">
<g clip-path="url(#clip0_193_15369)">
<path d="M14.0326 6.25315V9.77515H12.9326V1.08215H15.8506C16.1996 1.07462 16.5465 1.13761 16.8706 1.26734C17.1947 1.39707 17.4892 1.59088 17.7366 1.83715C18.2185 2.29479 18.5013 2.92334 18.5244 3.58749C18.5474 4.25164 18.3087 4.89826 17.8596 5.38815L17.7366 5.51215C17.2236 6.00515 16.5956 6.25415 15.8506 6.25415H14.0326V6.25315ZM14.0326 2.14915V5.18615H15.8776C16.0804 5.19239 16.2822 5.15541 16.4697 5.07765C16.6571 4.99989 16.8258 4.88314 16.9646 4.73515C17.2409 4.44213 17.3919 4.05289 17.3855 3.65024C17.3792 3.24759 17.216 2.8633 16.9306 2.57915C16.6501 2.30249 16.2716 2.14793 15.8776 2.14915H14.0326ZM21.0646 3.63215C21.8776 3.63215 22.5206 3.85415 22.9916 4.29115C23.4636 4.72715 23.6956 5.33715 23.6956 6.10715V9.77415H22.6436V8.94815H22.5956C22.1376 9.62815 21.5366 9.96715 20.7776 9.96715C20.1356 9.96715 19.5886 9.77315 19.1586 9.38515C18.9487 9.20619 18.7814 8.98259 18.6689 8.73068C18.5564 8.47877 18.5017 8.20493 18.5086 7.92915C18.5086 7.31215 18.7416 6.82715 19.1996 6.45915C19.6566 6.09215 20.2716 5.91215 21.0376 5.91215C21.6936 5.91215 22.2266 6.03715 22.6506 6.27215V6.01815C22.6506 5.63715 22.4866 5.27615 22.1996 5.02715C21.909 4.76439 21.5314 4.61836 21.1396 4.61715C20.5246 4.61715 20.0396 4.88115 19.6846 5.40715L18.7136 4.79115C19.2336 4.02115 20.0196 3.63215 21.0646 3.63215ZM19.6436 7.95115C19.6436 8.24115 19.7796 8.51215 20.0056 8.67915C20.2516 8.87315 20.5526 8.97715 20.8596 8.96915C21.3246 8.96915 21.7686 8.78315 22.0966 8.44915C22.4586 8.10315 22.6436 7.69415 22.6436 7.22315C22.3016 6.94615 21.8236 6.80715 21.2086 6.81315C20.7646 6.81315 20.3886 6.92515 20.0876 7.14015C19.7936 7.35515 19.6436 7.62515 19.6436 7.95015V7.95115Z" fill="#6B7280"/>
<path fill-rule="evenodd" clip-rule="evenodd" d="M29.7369 3.82666L26.0599 12.3877H24.9259L26.2919 9.3931L23.8799 3.82666H25.0759L26.8189 8.0968H26.8389L28.5409 3.82666H29.7369Z" fill="#6B7280"/>
<path fill-rule="evenodd" clip-rule="evenodd" d="M10.0521 5.49003C10.0521 5.15003 10.0251 4.81103 9.97008 4.47803H5.33008V6.39803H7.98808C7.93454 6.70435 7.81981 6.99673 7.65075 7.25772C7.48168 7.51871 7.26174 7.74294 7.00408 7.91703V9.16403H8.59008C9.51908 8.29803 10.0521 7.01503 10.0521 5.49003Z" fill="#4285F4"/>
<path fill-rule="evenodd" clip-rule="evenodd" d="M5.33055 10.3709C6.65555 10.3709 7.77655 9.92694 8.58955 9.16494L7.00455 7.91694C6.56055 8.22194 5.99255 8.39494 5.33055 8.39494C4.04555 8.39494 2.95855 7.51494 2.56955 6.33594H0.935547V7.62594C1.3393 8.44779 1.96482 9.14036 2.74145 9.62542C3.51808 10.1105 4.41488 10.3687 5.33055 10.3709Z" fill="#34A853"/>
<path fill-rule="evenodd" clip-rule="evenodd" d="M2.56949 6.33614C2.36455 5.71494 2.36455 5.04434 2.56949 4.42314V3.14014H0.936485C0.589065 3.83555 0.408203 4.60227 0.408203 5.37964C0.408203 6.15701 0.589065 6.92372 0.936485 7.61914L2.56949 6.33614Z" fill="#FBBC04"/>
<path fill-rule="evenodd" clip-rule="evenodd" d="M5.33055 2.36393C5.67885 2.35765 6.02493 2.42062 6.3487 2.5492C6.67246 2.67778 6.96745 2.8694 7.21655 3.11293L8.62355 1.68493C7.73623 0.840946 6.55508 0.375734 5.33055 0.387929C4.41429 0.39149 3.51727 0.651048 2.74068 1.13732C1.9641 1.62359 1.33887 2.31721 0.935547 3.13993L2.56955 4.42993C2.95855 3.24393 4.04555 2.36393 5.33055 2.36393Z" fill="#EA4335"/>
</g>
<defs>
<clipPath id="clip0_193_15369">
<rect width="30" height="12" fill="white" transform="translate(0.00585938 0.387695)"/>
</clipPath>
</defs>
</svg>
