<svg width="26" height="25" viewBox="0 0 26 25" fill="none" xmlns="http://www.w3.org/2000/svg">
<g clip-path="url(#clip0_221_8700)">
<path d="M21.9702 3.88696C22.3999 3.88696 22.7515 4.22446 22.7515 4.63696V19.6276L22.5073 19.3229L15.8667 11.0729C15.647 10.7963 15.3003 10.637 14.939 10.637C14.5776 10.637 14.2358 10.7963 14.0112 11.0729L9.9585 16.1073L8.46924 14.1057C8.24951 13.8104 7.89795 13.637 7.51709 13.637C7.13623 13.637 6.78467 13.8104 6.56494 14.1104L2.65869 19.3604L2.43896 19.651V19.637V4.63696C2.43896 4.22446 2.79053 3.88696 3.22021 3.88696H21.9702ZM3.22021 1.63696C1.49658 1.63696 0.0952148 2.98228 0.0952148 4.63696V19.637C0.0952148 21.2917 1.49658 22.637 3.22021 22.637H21.9702C23.6938 22.637 25.0952 21.2917 25.0952 19.637V4.63696C25.0952 2.98228 23.6938 1.63696 21.9702 1.63696H3.22021ZM7.12646 10.637C7.43425 10.637 7.73902 10.5788 8.02338 10.4657C8.30774 10.3526 8.56611 10.1869 8.78375 9.97795C9.00138 9.76902 9.17402 9.52098 9.29181 9.248C9.40959 8.97502 9.47021 8.68244 9.47021 8.38696C9.47021 8.09149 9.40959 7.79891 9.29181 7.52593C9.17402 7.25294 9.00138 7.0049 8.78375 6.79597C8.56611 6.58704 8.30774 6.42131 8.02338 6.30823C7.73902 6.19516 7.43425 6.13696 7.12646 6.13696C6.81868 6.13696 6.51391 6.19516 6.22955 6.30823C5.94519 6.42131 5.68682 6.58704 5.46918 6.79597C5.25155 7.0049 5.07891 7.25294 4.96112 7.52593C4.84334 7.79891 4.78271 8.09149 4.78271 8.38696C4.78271 8.68244 4.84334 8.97502 4.96112 9.248C5.07891 9.52098 5.25155 9.76902 5.46918 9.97795C5.68682 10.1869 5.94519 10.3526 6.22955 10.4657C6.51391 10.5788 6.81868 10.637 7.12646 10.637Z" fill="#6B7280"/>
</g>
<defs>
<clipPath id="clip0_221_8700">
<rect width="25" height="24" fill="white" transform="translate(0.0952148 0.136963)"/>
</clipPath>
</defs>
</svg>
