<svg width="32" height="33" viewBox="0 0 32 33" fill="none" xmlns="http://www.w3.org/2000/svg">
<path d="M18.2688 2.51677L18.4502 2.68677L31.9999 15.9981L30.5467 17.4762L28.6809 15.6436L28.6819 29.694C28.6819 30.7865 27.8361 31.6821 26.7633 31.7609L26.6088 31.7671H5.8779C4.78538 31.7671 3.8898 30.9213 3.80999 29.8484L3.8048 29.694L3.80377 15.6446L1.94006 17.4762L0.486816 15.9981L14.022 2.70024C15.1757 1.52273 17.0363 1.45742 18.2688 2.51677ZM15.5883 4.07574L15.4888 4.16592L5.87686 13.6078L5.8779 29.694L11.0596 29.693L11.0606 19.3285C11.0606 18.236 11.9065 17.3404 12.9793 17.2606L13.1337 17.2554H19.353C20.4455 17.2554 21.3411 18.1013 21.4209 19.1741L21.4261 19.3285L21.4251 29.693L26.6088 29.694L26.6078 13.6068L16.9689 4.1369C16.5916 3.76685 16.0029 3.74405 15.5883 4.07574ZM19.353 19.3285H13.1337L13.1327 29.693H19.352L19.353 19.3285Z" fill="currentColor"/>
</svg>
