<svg width="26" height="22" viewBox="0 0 26 22" fill="none" xmlns="http://www.w3.org/2000/svg">
<g clip-path="url(#clip0_248_15647)">
<path d="M25.991 10.9785C25.991 11.752 25.3139 12.3578 24.5465 12.3578H23.1021L23.1337 19.2414C23.1427 20.7668 21.8472 22.0043 20.2448 22.0043H5.78229C4.18889 22.0043 2.8934 20.7711 2.8934 19.2543V12.3578H1.44444C0.631944 12.3578 0 11.7563 0 10.9785C0 10.5918 0.135417 10.248 0.451389 9.94727L12.025 0.34375C12.341 0.0429688 12.7021 0 13.0181 0C13.334 0 13.6951 0.0859375 13.966 0.300781L25.4944 9.94727C25.8556 10.248 26.0361 10.5918 25.991 10.9785ZM15.8889 9.625C15.8889 8.89565 15.5845 8.19618 15.0428 7.68046C14.501 7.16473 13.7662 6.875 13 6.875C12.2338 6.875 11.499 7.16473 10.9572 7.68046C10.4155 8.19618 10.1111 8.89565 10.1111 9.625C10.1111 10.3543 10.4155 11.0538 10.9572 11.5695C11.499 12.0853 12.2338 12.375 13 12.375C13.7662 12.375 14.501 12.0853 15.0428 11.5695C15.5845 11.0538 15.8889 10.3543 15.8889 9.625ZM11.5556 13.75C9.56042 13.75 7.94444 15.2883 7.94444 17.1875C7.94444 17.5656 8.26944 17.875 8.66667 17.875H17.3333C17.7306 17.875 18.0556 17.5656 18.0556 17.1875C18.0556 15.2883 16.4396 13.75 14.4444 13.75H11.5556Z" fill="currentColor"/>
</g>
<defs>
<clipPath id="clip0_248_15647">
<rect width="26" height="22" fill="white"/>
</clipPath>
</defs>
</svg>
