<svg width="14" height="15" viewBox="0 0 14 15" fill="none" xmlns="http://www.w3.org/2000/svg">
<path d="M7 14.25C8.85652 14.25 10.637 13.5125 11.9497 12.1997C13.2625 10.887 14 9.10652 14 7.25C14 5.39348 13.2625 3.61301 11.9497 2.30025C10.637 0.987498 8.85652 0.25 7 0.25C5.14348 0.25 3.36301 0.987498 2.05025 2.30025C0.737498 3.61301 0 5.39348 0 7.25C0 9.10652 0.737498 10.887 2.05025 12.1997C3.36301 13.5125 5.14348 14.25 7 14.25ZM5.90625 9.4375H6.5625V7.6875H5.90625C5.54258 7.6875 5.25 7.39492 5.25 7.03125C5.25 6.66758 5.54258 6.375 5.90625 6.375H7.21875C7.58242 6.375 7.875 6.66758 7.875 7.03125V9.4375H8.09375C8.45742 9.4375 8.75 9.73008 8.75 10.0938C8.75 10.4574 8.45742 10.75 8.09375 10.75H5.90625C5.54258 10.75 5.25 10.4574 5.25 10.0938C5.25 9.73008 5.54258 9.4375 5.90625 9.4375ZM7 3.75C7.23206 3.75 7.45462 3.84219 7.61872 4.00628C7.78281 4.17038 7.875 4.39294 7.875 4.625C7.875 4.85706 7.78281 5.07962 7.61872 5.24372C7.45462 5.40781 7.23206 5.5 7 5.5C6.76794 5.5 6.54538 5.40781 6.38128 5.24372C6.21719 5.07962 6.125 4.85706 6.125 4.625C6.125 4.39294 6.21719 4.17038 6.38128 4.00628C6.54538 3.84219 6.76794 3.75 7 3.75Z" fill="currentColor"/>
</svg>
