<svg width="18" height="18" viewBox="0 0 18 18" fill="none" xmlns="http://www.w3.org/2000/svg">
<path d="M9.00044 0.240479C6.63033 0.240479 6.33289 0.250842 5.402 0.293206C4.47294 0.335751 3.83878 0.482842 3.28389 0.69866C2.7099 0.921569 2.22301 1.21975 1.73793 1.70502C1.25249 2.19011 0.954321 2.67702 0.730691 3.25084C0.514334 3.80593 0.367066 4.4403 0.325249 5.36902C0.283614 6.29993 0.272705 6.59757 0.272705 8.96775C0.272705 11.3379 0.28325 11.6345 0.325431 12.5654C0.368157 13.4945 0.515243 14.1287 0.730873 14.6836C0.953957 15.2576 1.25213 15.7445 1.73739 16.2296C2.22228 16.715 2.70918 17.0139 3.2828 17.2368C3.83805 17.4527 4.4724 17.5998 5.40128 17.6423C6.33216 17.6847 6.62942 17.695 8.99935 17.695C11.3696 17.695 11.6662 17.6847 12.5971 17.6423C13.5261 17.5998 14.161 17.4527 14.7163 17.2368C15.2901 17.0139 15.7762 16.715 16.2611 16.2296C16.7466 15.7445 17.0447 15.2576 17.2684 14.6838C17.4829 14.1287 17.6302 13.4943 17.6738 12.5656C17.7156 11.6347 17.7265 11.3379 17.7265 8.96775C17.7265 6.59757 17.7156 6.30011 17.6738 5.36921C17.6302 4.44011 17.4829 3.80593 17.2684 3.25102C17.0447 2.67702 16.7466 2.19011 16.2611 1.70502C15.7757 1.21957 15.2903 0.921388 14.7157 0.69866C14.1594 0.482842 13.5248 0.335751 12.5958 0.293206C11.6649 0.250842 11.3686 0.240479 8.99771 0.240479H9.00044ZM8.21756 1.81321C8.44991 1.81284 8.70918 1.81321 9.00044 1.81321C11.3306 1.81321 11.6067 1.82157 12.5269 1.86339C13.3778 1.9023 13.8396 2.04448 14.1472 2.16393C14.5545 2.32211 14.8448 2.51121 15.1501 2.81666C15.4555 3.12211 15.6446 3.41302 15.8031 3.8203C15.9226 4.12757 16.065 4.58939 16.1037 5.4403C16.1455 6.3603 16.1546 6.63666 16.1546 8.96575C16.1546 11.2948 16.1455 11.5712 16.1037 12.4912C16.0648 13.3421 15.9226 13.8039 15.8031 14.1112C15.645 14.5185 15.4555 14.8085 15.1501 15.1138C14.8446 15.4192 14.5546 15.6083 14.1472 15.7665C13.8399 15.8865 13.3778 16.0283 12.5269 16.0672C11.6069 16.109 11.3306 16.1181 9.00044 16.1181C6.67015 16.1181 6.39397 16.109 5.474 16.0672C4.62312 16.0279 4.16131 15.8857 3.85351 15.7663C3.44625 15.6081 3.15534 15.419 2.8499 15.1136C2.54445 14.8081 2.35537 14.5179 2.19683 14.1105C2.07738 13.8032 1.93502 13.3414 1.89629 12.4905C1.85448 11.5705 1.84611 11.2941 1.84611 8.96357C1.84611 6.63302 1.85448 6.35811 1.89629 5.43812C1.9352 4.58721 2.07738 4.12539 2.19683 3.81775C2.35501 3.41048 2.54445 3.11957 2.8499 2.81411C3.15534 2.50866 3.44625 2.31957 3.85351 2.16102C4.16113 2.04102 4.62312 1.89921 5.474 1.86011C6.27907 1.82375 6.59106 1.81284 8.21756 1.81102V1.81321ZM13.6588 3.2623C13.0807 3.2623 12.6116 3.73084 12.6116 4.30921C12.6116 4.88739 13.0807 5.35648 13.6588 5.35648C14.237 5.35648 14.7061 4.88739 14.7061 4.30921C14.7061 3.73102 14.237 3.26193 13.6588 3.26193V3.2623ZM9.00044 4.48593C6.52542 4.48593 4.51876 6.49266 4.51876 8.96775C4.51876 11.4428 6.52542 13.4487 9.00044 13.4487C11.4755 13.4487 13.4814 11.4428 13.4814 8.96775C13.4814 6.49266 11.4753 4.48593 9.00026 4.48593H9.00044ZM9.00044 6.05866C10.6069 6.05866 11.9094 7.36102 11.9094 8.96775C11.9094 10.5743 10.6069 11.8768 9.00044 11.8768C7.39376 11.8768 6.09144 10.5743 6.09144 8.96775C6.09144 7.36102 7.39376 6.05866 9.00044 6.05866Z" fill="currentColor"/>
</svg>
