<svg width="19" height="25" viewBox="0 0 19 25" fill="none" xmlns="http://www.w3.org/2000/svg">
<g clip-path="url(#clip0_87_1844)">
<path d="M10.9918 23.6219C13.3965 20.6125 18.8809 13.3188 18.8809 9.22192C18.8809 4.25317 14.8496 0.221924 9.88086 0.221924C4.91211 0.221924 0.880859 4.25317 0.880859 9.22192C0.880859 13.3188 6.36523 20.6125 8.76992 23.6219C9.34648 24.3391 10.4152 24.3391 10.9918 23.6219ZM9.88086 6.22192C10.6765 6.22192 11.4396 6.53799 12.0022 7.1006C12.5648 7.66321 12.8809 8.42627 12.8809 9.22192C12.8809 10.0176 12.5648 10.7806 12.0022 11.3432C11.4396 11.9059 10.6765 12.2219 9.88086 12.2219C9.08521 12.2219 8.32215 11.9059 7.75954 11.3432C7.19693 10.7806 6.88086 10.0176 6.88086 9.22192C6.88086 8.42627 7.19693 7.66321 7.75954 7.1006C8.32215 6.53799 9.08521 6.22192 9.88086 6.22192Z" fill="currentColor"/>
</g>
<defs>
<clipPath id="clip0_87_1844">
<rect width="18" height="24" fill="white" transform="translate(0.880859 0.221924)"/>
</clipPath>
</defs>
</svg>
