<svg width="17" height="14" viewBox="0 0 17 14" fill="none" xmlns="http://www.w3.org/2000/svg">
<g clip-path="url(#clip0_238_12005)">
<g clip-path="url(#clip1_238_12005)">
<path d="M1.97119 12.6875C1.55557 12.6875 1.22119 12.3949 1.22119 12.0312V10.7188C1.22119 10.3551 1.55557 10.0625 1.97119 10.0625H3.47119C3.88682 10.0625 4.22119 10.3551 4.22119 10.7188V12.0312C4.22119 12.3949 3.88682 12.6875 3.47119 12.6875H1.97119ZM6.72119 12.25C6.16807 12.25 5.72119 11.859 5.72119 11.375C5.72119 10.891 6.16807 10.5 6.72119 10.5H15.7212C16.2743 10.5 16.7212 10.891 16.7212 11.375C16.7212 11.859 16.2743 12.25 15.7212 12.25H6.72119ZM6.72119 7.875C6.16807 7.875 5.72119 7.48398 5.72119 7C5.72119 6.51602 6.16807 6.125 6.72119 6.125H15.7212C16.2743 6.125 16.7212 6.51602 16.7212 7C16.7212 7.48398 16.2743 7.875 15.7212 7.875H6.72119ZM6.72119 3.5C6.16807 3.5 5.72119 3.10898 5.72119 2.625C5.72119 2.14102 6.16807 1.75 6.72119 1.75H15.7212C16.2743 1.75 16.7212 2.14102 16.7212 2.625C16.7212 3.10898 16.2743 3.5 15.7212 3.5H6.72119ZM1.22119 7.65625V6.34375C1.22119 5.98008 1.55557 5.6875 1.97119 5.6875H3.47119C3.88682 5.6875 4.22119 5.98008 4.22119 6.34375V7.65625C4.22119 8.01992 3.88682 8.3125 3.47119 8.3125H1.97119C1.55557 8.3125 1.22119 8.01992 1.22119 7.65625ZM1.97119 3.9375C1.55557 3.9375 1.22119 3.64492 1.22119 3.28125V1.96875C1.22119 1.60508 1.55557 1.3125 1.97119 1.3125H3.47119C3.88682 1.3125 4.22119 1.60508 4.22119 1.96875V3.28125C4.22119 3.64492 3.88682 3.9375 3.47119 3.9375H1.97119Z" fill="currentColor"/>
</g>
</g>
<defs>
<clipPath id="clip0_238_12005">
<rect width="16" height="14" fill="white" transform="matrix(1 0 0 -1 0.307129 14)"/>
</clipPath>
<clipPath id="clip1_238_12005">
<rect width="16" height="14" fill="white" transform="matrix(1 0 0 -1 0.721191 14)"/>
</clipPath>
</defs>
</svg>
