<svg width="21" height="13" viewBox="0 0 21 13" fill="none" xmlns="http://www.w3.org/2000/svg">
<g clip-path="url(#clip0_193_15360)">
<path d="M7.33301 1.61865H13.012V11.052H7.33301V1.61865Z" fill="#F26122"/>
<path d="M10.1473 11.0524C9.11831 11.8824 7.83627 12.3351 6.5143 12.3354C5.7335 12.3285 4.96173 12.1678 4.24308 11.8625C3.52443 11.5571 2.87299 11.1132 2.32599 10.556C1.779 9.99875 1.34717 9.33921 1.05518 8.61503C0.763196 7.89086 0.616779 7.11624 0.624299 6.33545C0.616911 5.5547 0.763418 4.78014 1.05545 4.05602C1.34748 3.3319 1.77932 2.67241 2.32629 2.11523C2.87326 1.55804 3.52464 1.11408 4.24323 0.808699C4.96183 0.50332 5.73354 0.342508 6.5143 0.335449C7.8363 0.335449 9.1183 0.788449 10.1473 1.61845C9.44645 2.18866 8.88147 2.90789 8.49344 3.72383C8.1054 4.53978 7.90407 5.43194 7.90407 6.33545C7.90407 7.23896 8.1054 8.13112 8.49344 8.94707C8.88147 9.76301 9.44645 10.4822 10.1473 11.0524Z" fill="#EA1D25"/>
<path d="M19.6871 6.33545C19.6945 7.1162 19.548 7.89076 19.2559 8.61488C18.9639 9.339 18.5321 9.99849 17.9851 10.5557C17.4381 11.1129 16.7867 11.5568 16.0682 11.8622C15.3496 12.1676 14.5778 12.3284 13.7971 12.3354C12.4748 12.3353 11.1924 11.8825 10.1631 11.0524C10.8638 10.4821 11.4286 9.76287 11.8165 8.94694C12.2045 8.13101 12.4057 7.2389 12.4057 6.33545C12.4057 5.43199 12.2045 4.53989 11.8165 3.72396C11.4286 2.90803 10.8638 2.18877 10.1631 1.61845C11.1921 0.788513 12.4741 0.335757 13.7961 0.335449C14.577 0.342246 15.3488 0.502872 16.0676 0.808148C16.7864 1.11342 17.4379 1.55736 17.985 2.11458C18.5321 2.67181 18.9641 3.33139 19.2561 4.05564C19.5482 4.77988 19.6946 5.55458 19.6871 6.33545Z" fill="#F69E1E"/>
</g>
<defs>
<clipPath id="clip0_193_15360">
<rect width="20" height="12" fill="white" transform="translate(0.0683594 0.335449)"/>
</clipPath>
</defs>
</svg>
