<svg width="28" height="27" viewBox="0 0 28 27" fill="none" xmlns="http://www.w3.org/2000/svg">
<g clip-path="url(#clip0_193_18148)">
<path d="M8.75 19.4063C10.1992 19.4063 11.375 20.54 11.375 21.9375V22.7813L15.3398 19.9125C15.7937 19.5855 16.3461 19.4063 16.9148 19.4063H24.5C24.9813 19.4063 25.375 19.0266 25.375 18.5625V3.375C25.375 2.91094 24.9813 2.53125 24.5 2.53125H3.5C3.01875 2.53125 2.625 2.91094 2.625 3.375V18.5625C2.625 19.0266 3.01875 19.4063 3.5 19.4063H8.75ZM11.375 25.9453L11.3641 25.9559L11.0852 26.1563L10.15 26.8313C9.8875 27.0211 9.53203 27.0527 9.23125 26.9104C8.93047 26.768 8.75 26.4779 8.75 26.1563V25.033V24.6955V24.6797V24.4688V21.9375H6.125H3.5C1.56953 21.9375 0 20.424 0 18.5625V3.375C0 1.51348 1.56953 0 3.5 0H24.5C26.4305 0 28 1.51348 28 3.375V18.5625C28 20.424 26.4305 21.9375 24.5 21.9375H16.9148L11.375 25.9453Z" fill="#0E131F"/>
</g>
<defs>
<clipPath id="clip0_193_18148">
<rect width="28" height="27" fill="white"/>
</clipPath>
</defs>
</svg>
