<svg width="19" height="18" viewBox="0 0 19 18" fill="none" xmlns="http://www.w3.org/2000/svg">
<path fill-rule="evenodd" clip-rule="evenodd" d="M17.6307 2.60161C17.448 1.44685 16.4876 0.574053 15.3207 0.502441H3.11983C1.95291 0.574053 0.992456 1.44685 0.809828 2.60161L0.0123281 13.3449C-0.152672 15.5816 1.35983 17.4974 3.27566 17.4974H14.9998C16.8882 17.4974 18.3823 15.6641 18.254 13.4274L17.6307 2.60161ZM3.11983 1.91411H15.3207C15.7902 1.99334 16.1581 2.36122 16.2373 2.83077L16.6223 9.39411H13.6248C12.4216 9.43579 11.3409 10.1421 10.8198 11.2274C10.4944 11.8813 9.82689 12.2947 9.09649 12.2947C8.3661 12.2947 7.69862 11.8813 7.37316 11.2274C6.85366 10.1407 5.77207 9.43374 4.56816 9.39411H1.68983L2.17566 2.83994C2.25738 2.3598 2.63817 1.9864 3.11983 1.91411ZM14.9998 16.1224C15.4555 16.1096 15.8861 15.9109 16.1915 15.5724C16.6828 15.0102 16.9244 14.2723 16.8607 13.5283L16.7048 10.7783H13.6065C12.9136 10.8254 12.3018 11.2473 12.0115 11.8783C11.4531 12.983 10.3206 13.6795 9.08274 13.6795C7.84492 13.6795 6.71241 12.983 6.15399 11.8783C5.86057 11.2459 5.24543 10.8241 4.54983 10.7783H1.58899L1.38733 13.4458C1.31899 14.2114 1.56371 14.972 2.06566 15.5541C2.37214 15.9039 2.81074 16.1099 3.27566 16.1224H14.9998Z" fill="currentColor"/>
</svg>
