<svg width="37" height="36" viewBox="0 0 37 36" fill="none" xmlns="http://www.w3.org/2000/svg">
<path d="M18.2328 25.0067C18.0843 24.6895 17.7768 24.4581 17.4046 24.417C17.0895 24.382 16.7809 24.3163 16.4875 24.2217C16.356 24.1787 16.2325 24.1317 16.1182 24.0814L16.3081 23.5781C16.4422 23.6363 16.5804 23.6895 16.7218 23.7377L16.7277 23.7397L16.7337 23.7416C17.1876 23.8874 17.6343 23.9614 18.061 23.9614C18.4896 23.9614 18.8002 23.9055 19.0389 23.7858L19.0531 23.7786L19.0671 23.7708C19.4286 23.5691 19.636 23.2224 19.636 22.8195C19.636 22.3724 19.3879 22.0012 18.9552 21.8007C18.7375 21.6977 18.4284 21.5995 17.983 21.4918C17.5263 21.3795 17.1426 21.2604 16.845 21.1383C16.6275 21.0427 16.4388 20.89 16.2687 20.6717C16.1223 20.4768 16.0482 20.1838 16.0482 19.8005C16.0482 19.3379 16.1821 18.9561 16.4578 18.6332C16.7032 18.3503 17.0517 18.1581 17.5194 18.0503C17.8663 17.9704 18.1369 17.7296 18.2586 17.4187C18.3961 17.7338 18.6888 17.9682 19.053 18.0246C19.3572 18.0717 19.6365 18.1468 19.8876 18.2485L19.7128 18.7417C19.2387 18.5566 18.772 18.4632 18.3207 18.4632C16.8217 18.4632 16.7458 19.4685 16.7458 19.6701C16.7458 20.107 16.9885 20.4733 17.4117 20.6753L17.4235 20.681L17.4355 20.6862C17.6493 20.779 17.9526 20.8684 18.3903 20.9676C18.8428 21.067 19.2202 21.1809 19.5168 21.3072L19.5229 21.3098L19.5291 21.3123C19.7493 21.4014 19.9381 21.5502 20.1064 21.7672L20.1091 21.7705L20.1118 21.774C20.259 21.9589 20.3337 22.2449 20.3337 22.6241C20.3337 23.0617 20.2033 23.4321 19.9351 23.7566C19.7025 24.0381 19.3777 24.2329 18.942 24.3522C18.6055 24.4444 18.3445 24.6945 18.2328 25.0067Z" fill="currentColor"/>
<path d="M18.6123 26.3164H17.89C17.7285 26.3164 17.5975 26.1859 17.5975 26.0248V25.4392C17.5975 25.2852 17.4774 25.1587 17.3238 25.1416C16.9581 25.1012 16.6044 25.0258 16.2625 24.9156C15.9304 24.8068 15.6427 24.6778 15.3994 24.5284C15.2876 24.4597 15.2469 24.3203 15.2931 24.1978L15.7885 22.8844C15.8553 22.7076 16.0705 22.64 16.2363 22.7314C16.4601 22.8546 16.7007 22.9601 16.9578 23.0476C17.341 23.1707 17.7088 23.2322 18.061 23.2322C18.3639 23.2322 18.5803 23.1997 18.7101 23.1345C18.8398 23.062 18.9048 22.957 18.9048 22.8195C18.9048 22.6602 18.8182 22.5408 18.6451 22.4612C18.4783 22.3816 18.2001 22.2946 17.8108 22.2006C17.3101 22.0775 16.893 21.9471 16.5592 21.8096C16.2255 21.6648 15.9349 21.4331 15.6877 21.1146C15.4405 20.7888 15.3169 20.3507 15.3169 19.8004C15.3169 19.1633 15.5116 18.6167 15.9009 18.1606C16.2519 17.756 16.7364 17.4824 17.3547 17.3399C17.4939 17.3079 17.5975 17.1874 17.5975 17.0451V16.3998C17.5975 16.2386 17.7285 16.1081 17.89 16.1081H18.6123C18.7738 16.1081 18.9048 16.2386 18.9048 16.3998V17.0082C18.9048 17.1572 19.0176 17.2813 19.1652 17.3042C19.7068 17.3881 20.1828 17.5469 20.5929 17.7807C20.7093 17.847 20.7555 17.9882 20.7108 18.1142L20.2471 19.4222C20.1858 19.5956 19.981 19.6689 19.8163 19.5861C19.294 19.3236 18.7956 19.1923 18.3207 19.1923C17.7582 19.1923 17.4769 19.3516 17.4769 19.6701C17.4769 19.8222 17.5605 19.938 17.7273 20.0177C17.8942 20.0901 18.1692 20.1697 18.5524 20.2566C19.0468 20.3653 19.4641 20.4918 19.804 20.6367C20.1439 20.7742 20.4375 21.0023 20.6848 21.3209C20.9382 21.6394 21.0649 22.0738 21.0649 22.6241C21.0649 23.2322 20.8764 23.7643 20.4993 24.2205C20.1709 24.6181 19.7163 24.8963 19.1356 25.0554C19.0021 25.092 18.9048 25.2098 18.9048 25.3478V26.0248C18.9048 26.1859 18.7738 26.3164 18.6123 26.3164Z" fill="currentColor"/>
<path fill-rule="evenodd" clip-rule="evenodd" d="M15.0331 7.35809H21.3657C22.9876 7.35809 22.0969 9.78476 21.4402 11.265L20.6929 12.9625L20.592 13.1914C21.2998 13.1572 21.9999 13.3526 22.5868 13.7485C24.7827 15.752 26.5648 18.1641 27.8329 20.8491C28.327 21.842 28.5231 22.9561 28.3974 24.0575C28.2465 26.8646 25.9879 29.1016 23.1718 29.2331H13.2269C10.41 29.1055 8.14813 26.8709 7.99405 24.0633C7.86833 22.962 8.06437 21.8478 8.55857 20.855C9.82816 18.1673 11.6128 15.753 13.8119 13.7485C14.3989 13.3526 15.0989 13.1572 15.8067 13.1914L15.6897 12.9275L14.9585 11.265C14.3047 9.78476 13.4097 7.35809 15.0331 7.35809Z" stroke="currentColor" stroke-width="2" stroke-linecap="round" stroke-linejoin="round"/>
<path d="M20.592 14.2851C21.2133 14.2851 21.717 13.7954 21.717 13.1914C21.717 12.5873 21.2133 12.0976 20.592 12.0976V14.2851ZM15.8067 12.0976C15.1854 12.0976 14.6817 12.5873 14.6817 13.1914C14.6817 13.7954 15.1854 14.2851 15.8067 14.2851V12.0976ZM24.611 12.6808C25.1493 12.3793 25.3344 11.7105 25.0242 11.1871C24.714 10.6637 24.0263 10.4838 23.4879 10.7853L24.611 12.6808ZM20.693 12.9624L20.91 14.0356L20.9133 14.035L20.693 12.9624ZM15.6897 12.9274L15.9227 11.8573L15.9125 11.8553L15.6897 12.9274ZM12.8936 10.7758C12.3497 10.4836 11.6653 10.6753 11.3648 11.204C11.0642 11.7327 11.2614 12.3982 11.8052 12.6903L12.8936 10.7758ZM20.592 12.0976H15.8067V14.2851H20.592V12.0976ZM23.4879 10.7853C22.5474 11.312 21.5295 11.6847 20.4726 11.8899L20.9133 14.035C22.2113 13.783 23.4597 13.3256 24.611 12.6808L23.4879 10.7853ZM20.4759 11.8892C18.9708 12.177 17.4237 12.1661 15.9227 11.8573L15.4568 13.9975C17.2544 14.3673 19.1075 14.3802 20.91 14.0356L20.4759 11.8892ZM15.9125 11.8553C14.8584 11.6484 13.8407 11.2847 12.8936 10.7758L11.8052 12.6903C12.9524 13.3067 14.1868 13.7482 15.4671 13.9996L15.9125 11.8553Z" fill="currentColor"/>
</svg>
