<svg width="34" height="27" viewBox="0 0 34 27" fill="none" xmlns="http://www.w3.org/2000/svg">
<path fill-rule="evenodd" clip-rule="evenodd" d="M7.23112 0.480591H27.2311C30.913 0.480591 33.8978 3.46536 33.8978 7.14726V14.2473C33.8978 17.9292 30.913 20.9139 27.2311 20.9139H7.23112C3.54922 20.9139 0.564453 17.9292 0.564453 14.2473V7.14726C0.564453 3.46536 3.54922 0.480591 7.23112 0.480591ZM27.2311 18.1306C29.3758 18.1306 31.1145 16.392 31.1145 14.2473V7.14726C31.1145 5.00255 29.3758 3.26392 27.2311 3.26392H7.23112C5.08641 3.26392 3.34779 5.00255 3.34779 7.14726V14.2473C3.34779 16.392 5.08641 18.1306 7.23112 18.1306H27.2311Z" fill="currentColor"/>
<path d="M26.3978 24.1973H8.06445C7.3741 24.1973 6.81445 24.7569 6.81445 25.4473C6.81445 26.1376 7.3741 26.6973 8.06445 26.6973H26.3978C27.0881 26.6973 27.6478 26.1376 27.6478 25.4473C27.6478 24.7569 27.0881 24.1973 26.3978 24.1973Z" fill="currentColor"/>
</svg>
