<svg width="27" height="26" viewBox="0 0 27 26" fill="none" xmlns="http://www.w3.org/2000/svg">
<path d="M7.65977 25.5979H14.6109C18.3581 25.5979 21.4015 22.5544 21.4015 18.8072C21.4015 15.06 18.3581 12.0166 14.6109 12.0166H7.65977C3.91258 12.0166 0.869141 15.06 0.869141 18.8072C0.869141 22.5544 3.91258 25.5979 7.65977 25.5979ZM7.65977 15.1712H14.6109C16.6172 15.1712 18.247 16.8009 18.247 18.8072C18.247 20.8136 16.6172 22.4433 14.6109 22.4433H7.65977C5.65345 22.4433 4.0237 20.8136 4.0237 18.8072C4.0237 16.8009 5.65345 15.1712 7.65977 15.1712Z" fill="currentColor"/>
<path d="M25.9329 4.63971C25.9514 4.70762 25.9514 4.79404 25.9946 4.84343C26.7477 5.80647 26.4267 5.81264 25.7971 6.45466C24.5747 7.70784 23.3463 8.96102 22.0993 10.1957C21.3955 10.8871 20.4633 10.7204 20.0682 9.8685C19.8583 9.41167 19.9016 8.95485 20.2534 8.5968C21.6609 7.1399 23.0932 5.70152 24.5068 4.25697C24.7723 3.98534 25.0316 4.09646 25.297 4.25079C25.4822 4.35574 25.6674 4.46686 25.8526 4.57181C25.8773 4.5965 25.902 4.62119 25.9329 4.64589V4.63971Z" fill="currentColor"/>
<path d="M18.1115 7.94863C17.6115 8.35607 17.1052 8.4178 16.4941 8.11531C16.099 7.91777 15.8212 7.36834 15.9447 6.86213C16.4324 4.89902 16.9509 2.94826 17.4571 0.991325C17.5497 0.639447 17.7781 0.528328 18.1115 0.565368C18.3461 0.590061 18.5807 0.627101 18.8091 0.68266C19.8709 0.948112 19.9943 1.158 19.7227 2.20129C19.3029 3.82487 18.8955 5.44845 18.4695 7.06585C18.3893 7.37452 18.235 7.65849 18.1115 7.95481V7.94863Z" fill="currentColor"/>
<path d="M11.6168 7.9609C11.5057 7.73866 11.3575 7.52877 11.2896 7.28801C10.7834 5.50392 10.2895 3.71367 9.80799 1.92341C9.64131 1.29991 9.73391 1.12705 10.3327 0.873949C10.4685 0.818389 10.6043 0.762829 10.7402 0.72579C11.8267 0.417125 12.0119 0.522071 12.3082 1.6024C12.765 3.26919 13.228 4.93598 13.691 6.5966C13.8268 7.08429 13.8145 7.52877 13.4317 7.91768C12.8823 8.47945 12.2094 8.4918 11.6106 7.9609H11.6168Z" fill="currentColor"/>
</svg>
