<svg width="36" height="10" viewBox="0 0 36 10" fill="none" xmlns="http://www.w3.org/2000/svg">
<g clip-path="url(#clip0_193_15365)">
<path fill-rule="evenodd" clip-rule="evenodd" d="M33.2842 0.282656C33.2925 0.231075 33.3189 0.184135 33.3586 0.150239C33.3984 0.116343 33.4489 0.0977033 33.5012 0.0976563L34.7142 0.0976562C34.8492 0.0976562 34.9512 0.217656 34.9302 0.350656L33.8672 7.08666C33.8538 7.17261 33.8102 7.25097 33.7442 7.30762C33.6782 7.36427 33.5941 7.39549 33.5072 7.39566H32.4222C32.3906 7.39561 32.3593 7.38872 32.3306 7.37546C32.302 7.3622 32.2765 7.34289 32.256 7.31885C32.2354 7.29482 32.2204 7.26662 32.2118 7.23621C32.2032 7.20579 32.2013 7.17388 32.2062 7.14266L33.2842 0.282656ZM31.8002 2.52766C31.8318 2.52773 31.8631 2.53463 31.8918 2.54787C31.9205 2.56112 31.946 2.58041 31.9666 2.60443C31.9872 2.62844 32.0024 2.65662 32.0111 2.68703C32.0199 2.71744 32.0219 2.74938 32.0172 2.78066L31.3372 7.08766C31.3236 7.1736 31.2797 7.25186 31.2135 7.30833C31.1474 7.3648 31.0632 7.39577 30.9762 7.39566H29.8432C29.8115 7.39563 29.7801 7.38872 29.7514 7.3754C29.7226 7.36209 29.6971 7.34268 29.6765 7.31853C29.656 7.29438 29.6409 7.26605 29.6324 7.23552C29.6239 7.20498 29.6221 7.17295 29.6272 7.14166L29.6832 6.79166C29.6832 6.79166 29.0622 7.51166 27.9412 7.51166C27.2892 7.51166 26.7412 7.32366 26.3572 6.87166C25.9392 6.38166 25.7672 5.67666 25.8892 4.93966C26.1192 3.46266 27.3072 2.40966 28.6972 2.40966C29.3032 2.40966 29.9102 2.54166 30.1832 2.93666L30.2712 3.06466L30.3262 2.71266C30.3344 2.66124 30.3607 2.61444 30.4003 2.58056C30.4398 2.54669 30.4901 2.52794 30.5422 2.52766H31.8002ZM30.0472 4.97766C30.1022 4.62866 30.0262 4.31366 29.8342 4.08766C29.6422 3.86266 29.3522 3.74466 28.9942 3.74466C28.2782 3.74466 27.6982 4.24266 27.5842 4.95466C27.5262 5.30466 27.5962 5.61866 27.7822 5.83866C27.9702 6.06066 28.2622 6.17866 28.6272 6.17866C29.3552 6.17866 29.9252 5.69666 30.0472 4.97766ZM23.9472 0.0976562C24.8272 0.0976562 25.4892 0.329656 25.8632 0.768656C26.2032 1.16866 26.3152 1.73866 26.1982 2.46466C25.9372 4.12466 24.9382 4.96166 23.2082 4.96166H22.3762C22.2893 4.96178 22.2054 4.99286 22.1394 5.04931C22.0734 5.10576 22.0297 5.18389 22.0162 5.26966L21.7152 7.17966C21.7056 7.23989 21.6749 7.29475 21.6285 7.33435C21.5821 7.37395 21.5232 7.39569 21.4622 7.39566H20.1142C20.0826 7.39561 20.0513 7.38872 20.0226 7.37546C19.994 7.3622 19.9685 7.34289 19.948 7.31885C19.9274 7.29482 19.9124 7.26662 19.9038 7.23621C19.8952 7.20579 19.8933 7.17388 19.8982 7.14266L20.9602 0.405656C20.9737 0.319886 21.0174 0.241761 21.0834 0.18531C21.1494 0.128859 21.2333 0.0977804 21.3202 0.0976563L23.9472 0.0976562ZM24.2502 2.55766C24.3032 2.22766 24.2602 1.98766 24.1232 1.82566C23.8922 1.55566 23.4432 1.55566 22.9702 1.55566H22.7882C22.6802 1.55566 22.5882 1.63366 22.5722 1.73966L22.2942 3.50066H22.6902C23.3872 3.50066 24.1072 3.50066 24.2502 2.55766Z" fill="#0079C1"/>
<path fill-rule="evenodd" clip-rule="evenodd" d="M19.7621 2.52766C19.9381 2.52766 20.0421 2.72666 19.9411 2.87166L15.7371 8.94166C15.7032 8.98981 15.6583 9.02911 15.6061 9.05626C15.5539 9.08342 15.4959 9.09761 15.4371 9.09766H14.1731C14.133 9.09745 14.0939 9.08629 14.0597 9.06538C14.0256 9.04448 13.9979 9.01463 13.9796 8.97907C13.9612 8.94352 13.953 8.90362 13.9557 8.8637C13.9584 8.82378 13.972 8.78538 13.9951 8.75266L15.3041 6.90466L13.9121 2.81766C13.901 2.7847 13.8979 2.74959 13.903 2.7152C13.9082 2.68081 13.9214 2.64813 13.9416 2.61984C13.9618 2.59154 13.9884 2.56843 14.0192 2.55241C14.0501 2.53639 14.0843 2.5279 14.1191 2.52766H15.3621C15.5221 2.52766 15.6651 2.63366 15.7121 2.78766L16.4511 5.25766L18.1951 2.68766C18.2631 2.58766 18.3751 2.52766 18.4971 2.52766H19.7621ZM13.0621 2.52766C13.1971 2.52766 13.2991 2.64766 13.2781 2.78066L12.5981 7.08766C12.5845 7.17343 12.5408 7.25155 12.4748 7.308C12.4088 7.36445 12.3249 7.39553 12.2381 7.39566H11.1051C11.0733 7.3956 11.042 7.38869 11.0132 7.37538C10.9843 7.36207 10.9588 7.34269 10.9381 7.31856C10.9175 7.29443 10.9024 7.26613 10.8937 7.23559C10.8851 7.20506 10.8832 7.17301 10.8881 7.14166L10.9451 6.79166C10.9451 6.79166 10.3241 7.51166 9.20305 7.51166C8.55005 7.51166 8.00305 7.32366 7.61905 6.87166C7.20105 6.38166 7.02906 5.67666 7.14906 4.93966C7.38105 3.46266 8.56905 2.40966 9.95805 2.40966C10.5651 2.40966 11.1721 2.54166 11.4451 2.93666L11.5321 3.06466L11.5881 2.71266C11.596 2.66107 11.6221 2.61403 11.6617 2.58008C11.7014 2.54614 11.7519 2.52753 11.8041 2.52766H13.0621ZM11.3091 4.97766C11.3641 4.62866 11.2881 4.31366 11.0951 4.08766C10.9041 3.86266 10.6141 3.74466 10.2571 3.74466C9.54006 3.74466 8.96005 4.24266 8.84705 4.95466C8.78706 5.30466 8.85706 5.61866 9.04405 5.83866C9.23205 6.06066 9.52406 6.17866 9.88906 6.17866C10.6171 6.17866 11.1871 5.69666 11.3091 4.97766ZM5.20905 0.0976562C6.08906 0.0976562 6.75105 0.329656 7.12505 0.768656C7.46406 1.16866 7.57705 1.73866 7.46005 2.46466C7.19905 4.12466 6.20006 4.96166 4.46905 4.96166H3.63705C3.55022 4.96178 3.46627 4.99286 3.40029 5.04931C3.33431 5.10576 3.29062 5.18389 3.27705 5.26966L2.99105 7.08766C2.97747 7.1736 2.93363 7.25186 2.86744 7.30833C2.80125 7.3648 2.71706 7.39577 2.63005 7.39566H1.37605C1.3444 7.39578 1.31309 7.389 1.28432 7.3758C1.25554 7.3626 1.22999 7.34328 1.20943 7.31921C1.18888 7.29513 1.17381 7.26686 1.16528 7.23637C1.15676 7.20588 1.15497 7.1739 1.16005 7.14266L2.22205 0.405656C2.23562 0.319886 2.27931 0.241761 2.34529 0.18531C2.41127 0.128859 2.49522 0.0977804 2.58205 0.0976563L5.20905 0.0976562ZM5.51305 2.55766C5.56505 2.22766 5.52306 1.98766 5.38605 1.82566C5.15506 1.55566 4.70605 1.55566 4.23305 1.55566H4.05105C3.94305 1.55566 3.85105 1.63366 3.83505 1.73966L3.55505 3.50066H3.95305C4.64906 3.50066 5.37005 3.50066 5.51305 2.55766Z" fill="#00457C"/>
</g>
<defs>
<clipPath id="clip0_193_15365">
<rect width="35" height="9" fill="white" transform="translate(0.537109 0.0976562)"/>
</clipPath>
</defs>
</svg>
