<svg width="44" height="45" viewBox="0 0 44 45" fill="none" xmlns="http://www.w3.org/2000/svg">
<g clip-path="url(#clip0_193_15238)">
<path d="M37.4 0.708008H6.6C2.95492 0.708008 0 3.66293 0 7.30801V38.108C0 41.7531 2.95492 44.708 6.6 44.708H37.4C41.0451 44.708 44 41.7531 44 38.108V7.30801C44 3.66293 41.0451 0.708008 37.4 0.708008Z" fill="white"/>
<path d="M32.3984 16.5893L15.5289 34.9971H9.34138C8.91169 34.9971 8.56794 34.5674 8.65388 34.1377L12.7789 8.0127C12.8648 7.41113 13.3804 6.98145 13.982 6.98145H24.4664C31.6851 7.23926 33.6617 10.9346 32.3726 16.6064L32.3984 16.5893Z" fill="#002C8A"/>
<path d="M32.6734 14.8877C35.2515 16.2627 35.8531 18.8408 34.9937 22.2783C33.8765 27.3486 30.525 29.4971 25.6265 29.583L24.2515 29.6689C23.7359 29.6689 23.3922 30.0127 23.3062 30.5283L22.189 37.3174C22.1031 37.9189 21.5875 38.3486 20.9859 38.3486H15.8297C15.4 38.3486 15.0562 37.9189 15.1422 37.4893L17.0328 25.2002C17.1187 24.7705 32.6734 14.8877 32.6734 14.8877Z" fill="#009BE1"/>
<path d="M16.9297 25.8018L18.6484 14.8877C18.7048 14.6292 18.8448 14.3965 19.0468 14.2256C19.2487 14.0548 19.5014 13.9552 19.7656 13.9424H28.0156C29.9922 13.9424 31.4531 14.2861 32.6562 14.8877C32.2266 18.6689 30.4219 24.7705 21.6562 24.9424H17.875C17.4453 24.9424 17.0156 25.2861 16.9297 25.8018Z" fill="#001F6B"/>
</g>
<defs>
<clipPath id="clip0_193_15238">
<rect width="44" height="44" fill="white" transform="translate(0 0.708008)"/>
</clipPath>
</defs>
</svg>
