<svg width="24" height="18" viewBox="0 0 24 18" fill="none" xmlns="http://www.w3.org/2000/svg">
<g clip-path="url(#clip0_248_15637)">
<path d="M12.5812 0.14043L23.3812 5.76543C23.9587 6.06777 24.1687 6.75332 23.8462 7.29473C23.5237 7.83613 22.7925 8.03301 22.215 7.73066L12 2.41152L1.78121 7.73418C1.20371 8.03652 0.472461 7.83965 0.149961 7.29824C-0.172539 6.75684 0.0374609 6.07129 0.614961 5.76895L11.4187 0.14043C11.7825 -0.0494141 12.2212 -0.0494141 12.585 0.14043H12.5812ZM12 5.6248C12.3978 5.6248 12.7793 5.77296 13.0606 6.03669C13.3419 6.30041 13.5 6.65809 13.5 7.03105C13.5 7.40402 13.3419 7.7617 13.0606 8.02542C12.7793 8.28915 12.3978 8.4373 12 8.4373C11.6021 8.4373 11.2206 8.28915 10.9393 8.02542C10.658 7.7617 10.5 7.40402 10.5 7.03105C10.5 6.65809 10.658 6.30041 10.9393 6.03669C11.2206 5.77296 11.6021 5.6248 12 5.6248ZM5.39996 8.9998C5.79779 8.9998 6.17932 9.14796 6.46062 9.41168C6.74193 9.67541 6.89996 10.0331 6.89996 10.4061C6.89996 10.779 6.74193 11.1367 6.46062 11.4004C6.17932 11.6641 5.79779 11.8123 5.39996 11.8123C5.00214 11.8123 4.62061 11.6641 4.3393 11.4004C4.058 11.1367 3.89996 10.779 3.89996 10.4061C3.89996 10.0331 4.058 9.67541 4.3393 9.41168C4.62061 9.14796 5.00214 8.9998 5.39996 8.9998ZM17.1 10.4061C17.1 10.0331 17.258 9.67541 17.5393 9.41168C17.8206 9.14796 18.2021 8.9998 18.6 8.9998C18.9978 8.9998 19.3793 9.14796 19.6606 9.41168C19.9419 9.67541 20.1 10.0331 20.1 10.4061C20.1 10.779 19.9419 11.1367 19.6606 11.4004C19.3793 11.6641 18.9978 11.8123 18.6 11.8123C18.2021 11.8123 17.8206 11.6641 17.5393 11.4004C17.258 11.1367 17.1 10.779 17.1 10.4061ZM8.50871 17.2756L7.49996 15.5213V16.8748C7.49996 17.4971 6.96371 17.9998 6.29996 17.9998H4.49996C3.83621 17.9998 3.29996 17.4971 3.29996 16.8748V15.5213L2.29121 17.2756C2.05496 17.6869 1.51121 17.8381 1.07246 17.6201C0.633711 17.4021 0.472461 16.8889 0.704961 16.4775L2.12621 14.0061C2.69996 13.0041 3.81746 12.3783 5.03246 12.3783H5.76371C6.37496 12.3783 6.95996 12.5365 7.46621 12.8213L8.72621 10.6311C9.29996 9.6291 10.4175 9.00332 11.6325 9.00332H12.3637C13.5787 9.00332 14.6925 9.6291 15.27 10.6311L16.53 12.8213C17.0362 12.5365 17.6212 12.3783 18.2325 12.3783H18.9637C20.1787 12.3783 21.2925 13.0041 21.87 14.0061L23.2912 16.4775C23.5275 16.8889 23.3625 17.3986 22.9237 17.6201C22.485 17.8416 21.9412 17.6869 21.705 17.2756L20.7 15.5213V16.8748C20.7 17.4971 20.1637 17.9998 19.5 17.9998H17.7C17.0362 17.9998 16.5 17.4971 16.5 16.8748V15.5213L15.4912 17.2756C15.255 17.6869 14.7112 17.8381 14.2725 17.6201C13.8337 17.4021 13.6725 16.8889 13.905 16.4775L15.2662 14.1045C15.2025 14.0447 15.1462 13.9779 15.105 13.9006L14.1 12.1463V14.0623C14.1 14.6846 13.5637 15.1873 12.9 15.1873H11.1C10.4362 15.1873 9.89996 14.6846 9.89996 14.0623V12.1463L8.89121 13.9006C8.84621 13.9779 8.79371 14.0447 8.72996 14.1045L10.0912 16.4775C10.3275 16.8889 10.1625 17.3986 9.72371 17.6201C9.28496 17.8416 8.74121 17.6869 8.50496 17.2756H8.50871Z" fill="currentColor"/>
</g>
<defs>
<clipPath id="clip0_248_15637">
<rect width="24" height="18" fill="white"/>
</clipPath>
</defs>
</svg>
