<svg width="30" height="31" viewBox="0 0 30 31" fill="none" xmlns="http://www.w3.org/2000/svg">
<path d="M20.8 27.9412H9.2C7.93646 27.8952 6.75946 27.2875 5.99043 26.2839C5.2214 25.2803 4.9407 23.9857 5.225 22.7537L5.525 21.3287C5.87004 19.3996 7.52827 17.982 9.4875 17.9412H20.5125C22.4717 17.982 24.13 19.3996 24.475 21.3287L24.775 22.7537C25.0593 23.9857 24.7786 25.2803 24.0096 26.2839C23.2405 27.2875 22.0635 27.8952 20.8 27.9412Z" fill="currentColor"/>
<path d="M15.625 15.4412H14.375C11.6136 15.4412 9.375 13.2026 9.375 10.4412V7.14118C9.37166 6.02625 9.81309 4.95603 10.6015 4.16765C11.3898 3.37928 12.4601 2.93785 13.575 2.94118H16.425C17.5399 2.93785 18.6101 3.37928 19.3985 4.16765C20.1869 4.95603 20.6283 6.02625 20.625 7.14118V10.4412C20.625 11.7673 20.0982 13.039 19.1605 13.9767C18.2228 14.9144 16.9511 15.4412 15.625 15.4412Z" fill="currentColor"/>
</svg>
