<svg width="29" height="29" viewBox="0 0 29 29" fill="none" xmlns="http://www.w3.org/2000/svg">
<path fill-rule="evenodd" clip-rule="evenodd" d="M23.6266 19.9332L23.9066 21.2632C24.1719 22.413 23.9099 23.6213 23.1922 24.558C22.4744 25.4947 21.3759 26.062 20.1966 26.1049H9.3699C8.1906 26.062 7.09206 25.4947 6.3743 24.558C5.65654 23.6213 5.39456 22.413 5.6599 21.2632L5.9399 19.9332C6.26194 18.1328 7.80962 16.8097 9.63823 16.7715H19.9282C21.7568 16.8097 23.3045 18.1328 23.6266 19.9332ZM20.1966 24.3432C20.789 24.3363 21.3465 24.0618 21.7132 23.5965V23.6082C22.1632 23.0437 22.3385 22.3083 22.1916 21.6015L21.9116 20.2715C21.7562 19.2859 20.9253 18.5479 19.9282 18.5099H9.63824C8.64116 18.5479 7.81026 19.2859 7.6549 20.2715L7.3749 21.6015C7.23158 22.3045 7.40671 23.0349 7.85324 23.5965C8.21996 24.0618 8.77748 24.3363 9.3699 24.3432H20.1966Z" fill="currentColor"/>
<path fill-rule="evenodd" clip-rule="evenodd" d="M15.3665 14.4382H14.1999C11.6226 14.4382 9.53321 12.3488 9.53321 9.7715V6.6915C9.5301 5.6509 9.9421 4.65203 10.6779 3.91621C11.4137 3.18039 12.4126 2.76839 13.4532 2.7715H16.1132C17.1538 2.76839 18.1527 3.18039 18.8885 3.91621C19.6243 4.65203 20.0363 5.6509 20.0332 6.6915V9.7715C20.0332 12.3488 17.9439 14.4382 15.3665 14.4382ZM13.4532 4.5215C12.2548 4.5215 11.2832 5.49304 11.2832 6.6915V9.7715C11.2832 11.3823 12.5891 12.6882 14.1999 12.6882H15.3665C16.9774 12.6882 18.2832 11.3823 18.2832 9.7715V6.6915C18.2832 6.11598 18.0546 5.56403 17.6476 5.15708C17.2407 4.75013 16.6887 4.5215 16.1132 4.5215H13.4532Z" fill="currentColor"/>
</svg>
