<svg width="36" height="33" viewBox="0 0 36 33" fill="none" xmlns="http://www.w3.org/2000/svg">
<path d="M0 5.08301C0 2.60098 2.01797 0.583008 4.5 0.583008H31.5C33.982 0.583008 36 2.60098 36 5.08301V27.583C36 30.065 33.982 32.083 31.5 32.083H4.5C2.01797 32.083 0 30.065 0 27.583V5.08301ZM22.7672 12.5713C22.4508 12.1072 21.9305 11.833 21.375 11.833C20.8195 11.833 20.2922 12.1072 19.9828 12.5713L13.8656 21.5432L12.0023 19.2158C11.6789 18.815 11.1938 18.583 10.6875 18.583C10.1812 18.583 9.68906 18.815 9.37266 19.2158L4.87266 24.8408C4.46484 25.3471 4.3875 26.0432 4.66875 26.6268C4.95 27.2104 5.54063 27.583 6.1875 27.583H12.9375H15.1875H29.8125C30.4383 27.583 31.0148 27.2385 31.3031 26.683C31.5914 26.1275 31.5562 25.4596 31.2047 24.9463L22.7672 12.5713ZM7.875 11.833C8.77011 11.833 9.62855 11.4774 10.2615 10.8445C10.8944 10.2116 11.25 9.35311 11.25 8.45801C11.25 7.5629 10.8944 6.70446 10.2615 6.07152C9.62855 5.43859 8.77011 5.08301 7.875 5.08301C6.97989 5.08301 6.12145 5.43859 5.48851 6.07152C4.85558 6.70446 4.5 7.5629 4.5 8.45801C4.5 9.35311 4.85558 10.2116 5.48851 10.8445C6.12145 11.4774 6.97989 11.833 7.875 11.833Z" fill="currentColor"/>
</svg>
