<svg width="25" height="25" viewBox="0 0 25 25" fill="none" xmlns="http://www.w3.org/2000/svg">
<path d="M21.4833 7.59155C22.0337 7.05477 22.3233 6.41473 22.3432 5.6891C22.36 5.13625 22.2033 4.64113 21.8777 4.2179C21.804 4.12348 21.7241 4.04112 21.6209 3.93786C21.5426 3.86031 21.4641 3.78344 21.3737 3.71379C20.9521 3.38928 20.4481 3.23167 19.9033 3.2484C19.1785 3.26916 18.5384 3.55884 18.0008 4.10835L14.0912 8.10847L11.3312 7.65487L11.3401 7.64121C11.5096 7.36518 11.5617 7.04282 11.4873 6.73319C11.4162 6.43895 11.2378 6.1925 10.9841 6.0389C10.8081 5.93336 10.5977 5.87979 10.3786 5.89332C9.98096 5.91327 9.61132 6.13975 9.41459 6.48125L8.94971 7.26365L6.22735 6.81646C5.93619 6.7716 5.6674 6.85651 5.47615 7.06369L5.38013 7.16695C5.03459 7.54128 4.69054 7.91493 4.35851 8.2965C4.19057 8.49016 4.11771 8.74447 4.15936 8.99493C4.20101 9.24364 4.34981 9.45885 4.56811 9.5853L9.84161 12.2053C9.19995 12.8597 8.56566 13.5102 7.93755 14.1558L5.64709 13.9917C5.35753 13.9709 5.13105 14.0684 4.93432 14.2772C4.5999 14.6308 4.26709 14.9813 3.93349 15.326C3.79983 15.4628 3.65746 15.6357 3.61192 15.8844C3.6079 15.9043 3.6071 15.9931 3.6071 16.0132C3.60791 16.0388 3.61192 16.1316 3.61835 16.1564C3.7184 16.5572 4.02241 16.7228 4.24232 16.8132C4.93112 17.094 5.62232 17.3787 6.31513 17.6644L7.45688 18.1357L7.93527 19.2949C8.21853 19.9821 8.50085 20.666 8.78011 21.35C8.8689 21.5692 9.03377 21.8733 9.51056 21.9836L9.70891 21.9796C9.95534 21.934 10.1281 21.7923 10.2656 21.6588C10.6112 21.3236 10.9609 20.9908 11.3136 20.658C11.5248 20.4604 11.6209 20.2204 11.6 19.9444L11.4367 17.6532C12.0816 17.0268 12.7311 16.3924 13.3871 15.7491L15.9599 20.9338L16.0078 21.0226C16.1343 21.241 16.3503 21.3898 16.5998 21.4314C16.8478 21.4706 17.103 21.4001 17.2966 21.2314C17.6822 20.8954 18.0607 20.5466 18.4415 20.1963L18.5295 20.1147C18.7358 19.9243 18.8238 19.6571 18.7759 19.3635L18.3295 16.6412L19.1087 16.1787C19.4551 15.9796 19.6815 15.6099 19.6999 15.2123C19.7111 14.9914 19.6606 14.781 19.5535 14.605C19.4007 14.353 19.1534 14.1746 18.8599 14.1035C18.5502 14.029 18.2287 14.0811 17.9534 14.2498L17.9383 14.2587L17.4855 11.4987L21.4833 7.59155ZM9.96736 6.80367C10.0586 6.64523 10.2281 6.5413 10.4105 6.53246C10.477 6.52924 10.5706 6.53567 10.6538 6.58603C10.7601 6.65085 10.8354 6.75558 10.8666 6.88281C10.9002 7.02598 10.8746 7.17558 10.7946 7.30683L10.6507 7.54281L9.62745 7.37486L9.96736 6.80367ZM18.0955 19.6468L18.0083 19.7283C17.6316 20.0747 17.2579 20.4195 16.8771 20.7516C16.8107 20.8099 16.7388 20.8075 16.7052 20.8019C16.6444 20.7915 16.5916 20.7556 16.5612 20.7027L16.5236 20.6298L13.8084 15.1578C13.7813 15.1026 13.7076 14.9562 13.5268 14.9258C13.4205 14.9075 13.2572 14.9802 13.1843 15.0515C12.4307 15.7914 11.6827 16.5211 10.9404 17.2419C10.8292 17.3506 10.7803 17.4827 10.7924 17.6331L10.9603 19.9906C10.9659 20.0595 10.9531 20.1171 10.8739 20.1914C10.518 20.5274 10.166 20.8626 9.81952 21.1985C9.71787 21.297 9.65626 21.3377 9.65465 21.3449L9.59063 21.353C9.50425 21.3314 9.44344 21.2865 9.37139 21.1081C9.09215 20.4234 8.80982 19.7378 8.52577 19.0498L7.99783 17.7682C7.96502 17.6891 7.90261 17.6259 7.82346 17.5939L6.55945 17.073C5.86585 16.7867 5.17382 16.501 4.48341 16.2202C4.30502 16.1481 4.26015 16.0873 4.241 16.0001C4.25305 15.9337 4.29296 15.8729 4.3914 15.7722C4.72743 15.425 5.06347 15.0729 5.39934 14.717C5.46496 14.6473 5.51692 14.6298 5.57532 14.6298C5.58335 14.6298 5.59125 14.6298 5.59929 14.6306L7.96031 14.7996C8.10669 14.8116 8.24357 14.7604 8.35072 14.65C9.07072 13.9093 9.80118 13.1612 10.5411 12.4068C10.6444 12.3013 10.6867 12.186 10.666 12.0652C10.6492 11.9643 10.5252 11.83 10.434 11.7843L4.9637 9.06919C4.9637 9.06919 4.89004 9.03156 4.88924 9.03156C4.83727 9.00116 4.80124 8.94919 4.7916 8.88919C4.78517 8.85317 4.78356 8.78285 4.84115 8.71642C5.16834 8.34048 5.50918 7.97163 5.8507 7.60039L5.94592 7.49713C5.97793 7.46191 6.02346 7.4307 6.12431 7.44758L9.03072 7.92518C9.05335 7.9308 9.07411 7.93562 9.09728 7.93643L14.0581 8.75085C14.2309 8.77964 14.3813 8.72688 14.5093 8.59643L18.4597 4.55551C18.8829 4.12187 19.3613 3.90436 19.9229 3.88828C20.3413 3.87154 20.6821 3.98832 20.9837 4.22189C21.0517 4.27466 21.1109 4.33466 21.1893 4.41154C21.2525 4.47475 21.3157 4.53716 21.3717 4.60989C21.6045 4.9123 21.7172 5.2691 21.7053 5.67072C21.6886 6.23308 21.4701 6.71147 21.0373 7.1339L16.9981 11.0826C16.8652 11.2106 16.8133 11.3634 16.8429 11.5354L17.3813 14.8162C17.3821 14.8259 17.3837 14.8346 17.3861 14.8434L17.6573 16.4962C17.6581 16.5194 17.6621 16.5411 17.6685 16.5643L18.1453 19.4699C18.1612 19.5698 18.1308 19.6138 18.0956 19.6466L18.0955 19.6468ZM18.2867 14.797C18.4156 14.7171 18.5644 14.6915 18.7091 14.7274C18.8356 14.7586 18.9419 14.8329 19.0059 14.9394C19.0555 15.0226 19.0627 15.1178 19.0595 15.1834C19.0507 15.365 18.9467 15.5346 18.7843 15.6282L18.2171 15.9651L18.0491 14.9418L18.2867 14.797Z" fill="#B1BBBF" stroke="#B1BBBF" stroke-width="0.5"/>
</svg>
