<svg width="25" height="25" viewBox="0 0 25 25" fill="none" xmlns="http://www.w3.org/2000/svg">
<path d="M21.4833 17.3777C22.0337 17.9145 22.3233 18.5545 22.3432 19.2801C22.36 19.833 22.2033 20.3281 21.8777 20.7513C21.804 20.8458 21.7241 20.9281 21.6209 21.0314C21.5426 21.1089 21.4641 21.1858 21.3737 21.2554C20.9521 21.58 20.4481 21.7376 19.9033 21.7208C19.1785 21.7001 18.5384 21.4104 18.0008 20.8609L14.0912 16.8608L11.3312 17.3144L11.3401 17.328C11.5096 17.6041 11.5617 17.9264 11.4873 18.2361C11.4162 18.5303 11.2378 18.7767 10.9841 18.9303C10.8081 19.0359 10.5977 19.0894 10.3786 19.0759C9.98096 19.056 9.61132 18.8295 9.41459 18.488L8.94971 17.7056L6.22735 18.1528C5.93619 18.1976 5.6674 18.1127 5.47615 17.9055L5.38013 17.8023C5.03459 17.428 4.69054 17.0543 4.35851 16.6727C4.19057 16.4791 4.11771 16.2248 4.15936 15.9743C4.20101 15.7256 4.34981 15.5104 4.56811 15.3839L9.84161 12.7639C9.19995 12.1095 8.56566 11.459 7.93755 10.8135L5.64709 10.9775C5.35753 10.9983 5.13105 10.9008 4.93432 10.692C4.5999 10.3385 4.26709 9.98795 3.93349 9.64321C3.79983 9.50646 3.65746 9.33357 3.61192 9.08486C3.6079 9.06491 3.6071 8.97611 3.6071 8.95603C3.60791 8.93044 3.61192 8.83763 3.61835 8.81285C3.7184 8.41202 4.02241 8.24645 4.24232 8.15608C4.93112 7.87523 5.62232 7.5905 6.31513 7.30483L7.45688 6.83354L7.93527 5.67437C8.21853 4.98718 8.50085 4.30321 8.78011 3.61925C8.8689 3.40001 9.03377 3.09598 9.51056 2.98565L9.70891 2.98967C9.95534 3.0352 10.1281 3.1769 10.2656 3.31042C10.6112 3.64565 10.9609 3.97845 11.3136 4.31126C11.5248 4.50881 11.6209 4.74882 11.6 5.02482L11.4367 7.31606C12.0816 7.94247 12.7311 8.57685 13.3871 9.22012L15.9599 4.03543L16.0078 3.94664C16.1343 3.7282 16.3503 3.5794 16.5998 3.53788C16.8478 3.49864 17.103 3.56909 17.2966 3.73784C17.6822 4.07387 18.0607 4.42263 18.4415 4.77296L18.5295 4.85452C18.7358 5.04497 18.8238 5.31217 18.7759 5.60572L18.3295 8.32808L19.1087 8.79053C19.4551 8.98968 19.6815 9.35933 19.6999 9.75697C19.7111 9.97782 19.6606 10.1882 19.5535 10.3642C19.4007 10.6163 19.1534 10.7947 18.8599 10.8658C18.5502 10.9402 18.2287 10.8881 17.9534 10.7194L17.9383 10.7106L17.4855 13.4706L21.4833 17.3777ZM9.96736 18.1656C10.0586 18.324 10.2281 18.4279 10.4105 18.4368C10.477 18.44 10.5706 18.4336 10.6538 18.3832C10.7601 18.3184 10.8354 18.2137 10.8666 18.0864C10.9002 17.9433 10.8746 17.7937 10.7946 17.6624L10.6507 17.4264L9.62745 17.5944L9.96736 18.1656ZM18.0955 5.32247L18.0083 5.24091C17.6316 4.89456 17.2579 4.54971 16.8771 4.21769C16.8107 4.1593 16.7388 4.16171 16.7052 4.16733C16.6444 4.17777 16.5916 4.21367 16.5612 4.26657L16.5236 4.33943L13.8084 9.81143C13.7813 9.86661 13.7076 10.013 13.5268 10.0434C13.4205 10.0617 13.2572 9.98902 13.1843 9.91777C12.4307 9.17781 11.6827 8.44818 10.9404 7.72736C10.8292 7.6186 10.7803 7.48655 10.7924 7.33615L10.9603 4.9786C10.9659 4.90976 10.9531 4.85217 10.8739 4.77784C10.518 4.44181 10.166 4.10659 9.81952 3.77069C9.71787 3.67226 9.65626 3.63154 9.65465 3.62431L9.59063 3.61627C9.50425 3.63784 9.44344 3.6827 9.37139 3.8611C9.09215 4.54589 8.80982 5.23146 8.52577 5.91944L7.99783 7.20101C7.96502 7.28016 7.90261 7.34337 7.82346 7.37538L6.55945 7.89622C5.86585 8.18256 5.17382 8.46824 4.48341 8.74907C4.30502 8.82113 4.26015 8.88193 4.241 8.96912C4.25305 9.03555 4.29296 9.09635 4.3914 9.19707C4.72743 9.54421 5.06347 9.89632 5.39934 10.2523C5.46496 10.3219 5.51692 10.3395 5.57532 10.3395C5.58335 10.3395 5.59125 10.3395 5.59929 10.3387L7.96031 10.1696C8.10669 10.1576 8.24357 10.2089 8.35072 10.3192C9.07072 11.06 9.80118 11.808 10.5411 12.5624C10.6444 12.668 10.6867 12.7833 10.666 12.9041C10.6492 13.0049 10.5252 13.1393 10.434 13.1849L4.9637 15.9C4.9637 15.9 4.89004 15.9377 4.88924 15.9377C4.83727 15.9681 4.80124 16.02 4.7916 16.08C4.78517 16.1161 4.78356 16.1864 4.84115 16.2528C5.16834 16.6288 5.50918 16.9976 5.8507 17.3689L5.94592 17.4721C5.97793 17.5073 6.02346 17.5385 6.12431 17.5217L9.03072 17.0441C9.05335 17.0384 9.07411 17.0336 9.09728 17.0328L14.0581 16.2184C14.2309 16.1896 14.3813 16.2424 14.5093 16.3728L18.4597 20.4137C18.8829 20.8474 19.3613 21.0649 19.9229 21.081C20.3413 21.0977 20.6821 20.9809 20.9837 20.7473C21.0517 20.6946 21.1109 20.6346 21.1893 20.5577C21.2525 20.4945 21.3157 20.4321 21.3717 20.3594C21.6045 20.0569 21.7172 19.7001 21.7053 19.2985C21.6886 18.7362 21.4701 18.2578 21.0373 17.8353L16.9981 13.8866C16.8652 13.7586 16.8133 13.6058 16.8429 13.4338L17.3813 10.153C17.3821 10.1434 17.3837 10.1347 17.3861 10.1258L17.6573 8.473C17.6581 8.44983 17.6621 8.42813 17.6685 8.40496L18.1453 5.49938C18.1612 5.39947 18.1308 5.35541 18.0956 5.3226L18.0955 5.32247ZM18.2867 10.1722C18.4156 10.2521 18.5644 10.2777 18.7091 10.2418C18.8356 10.2106 18.9419 10.1363 19.0059 10.0298C19.0555 9.94666 19.0627 9.85143 19.0595 9.78581C19.0507 9.6042 18.9467 9.43465 18.7843 9.34102L18.2171 9.00419L18.0491 10.0274L18.2867 10.1722Z" fill="#B1BBBF" stroke="#B1BBBF" stroke-width="0.5"/>
</svg>
