<svg width="33" height="26" viewBox="0 0 33 26" fill="none" xmlns="http://www.w3.org/2000/svg">
<path d="M32.8535 21.5573V25.5666H0.853516V21.5719C2.71478 19.0845 5.13073 17.0657 7.90923 15.676C10.6877 14.2863 13.7522 13.564 16.8588 13.5666C23.3975 13.5666 29.2055 16.7053 32.8535 21.5573ZM22.1895 5.56527C22.1895 6.97975 21.6276 8.33631 20.6274 9.3365C19.6272 10.3367 18.2707 10.8986 16.8562 10.8986C15.4417 10.8986 14.0851 10.3367 13.0849 9.3365C12.0848 8.33631 11.5228 6.97975 11.5228 5.56527C11.5228 4.15078 12.0848 2.79422 13.0849 1.79403C14.0851 0.793836 15.4417 0.231934 16.8562 0.231934C18.2707 0.231934 19.6272 0.793836 20.6274 1.79403C21.6276 2.79422 22.1895 4.15078 22.1895 5.56527Z" fill="currentColor"/>
</svg>
