<svg width="16" height="16" viewBox="0 0 16 16" fill="none" xmlns="http://www.w3.org/2000/svg">
<path d="M15.1653 0.783195C15.4619 0.988732 15.6175 1.34402 15.5617 1.69931L13.6825 13.9141C13.6385 14.1989 13.4652 14.4485 13.2127 14.5895C12.9602 14.7304 12.6578 14.748 12.3906 14.6364L8.87881 13.1771L6.86748 15.3529C6.60616 15.6377 6.19508 15.7317 5.83392 15.5907C5.47276 15.4498 5.23786 15.1004 5.23786 14.7128V12.2581C5.23786 12.1406 5.28191 12.029 5.36118 11.9439L10.2823 6.57349C10.4526 6.3885 10.4468 6.10369 10.2706 5.92751C10.0944 5.75134 9.80961 5.73959 9.62462 5.90696L3.65228 11.2128L1.05957 9.91494C0.748331 9.75932 0.548665 9.44808 0.539857 9.1016C0.531048 8.75512 0.713096 8.43213 1.01259 8.25889L14.167 0.742087C14.4812 0.562976 14.8688 0.580593 15.1653 0.783195Z" fill="currentColor"/>
</svg>
