<svg width="21" height="21" viewBox="0 0 21 21" fill="none" xmlns="http://www.w3.org/2000/svg">
<g clip-path="url(#clip0_193_14694)">
<path d="M3 5.21753C3 4.44409 3.62891 3.81519 4.40234 3.81519C4.77344 3.81519 5.12891 3.96362 5.39453 4.22534L6.02734 4.85815C5.20703 6.37769 5.34766 8.27612 6.45312 9.66284L6.39844 9.71362C6.03125 10.0808 6.03125 10.6746 6.39844 11.0378C6.76562 11.4011 7.35937 11.405 7.72266 11.0378L13.9766 4.79175C14.3438 4.42456 14.3438 3.83081 13.9766 3.46753C13.6094 3.10425 13.0156 3.10034 12.6523 3.46753L12.6016 3.51831C11.2148 2.41284 9.3125 2.27222 7.79688 3.09253L7.16016 2.45972C6.42969 1.72534 5.4375 1.31519 4.40234 1.31519C2.24609 1.31519 0.5 3.06128 0.5 5.21753V17.5652C0.5 18.2566 1.05859 18.8152 1.75 18.8152C2.44141 18.8152 3 18.2566 3 17.5652V5.21753ZM10.5 13.8152C10.8315 13.8152 11.1495 13.6835 11.3839 13.4491C11.6183 13.2146 11.75 12.8967 11.75 12.5652C11.75 12.2337 11.6183 11.9157 11.3839 11.6813C11.1495 11.4469 10.8315 11.3152 10.5 11.3152C10.1685 11.3152 9.85054 11.4469 9.61612 11.6813C9.3817 11.9157 9.25 12.2337 9.25 12.5652C9.25 12.8967 9.3817 13.2146 9.61612 13.4491C9.85054 13.6835 10.1685 13.8152 10.5 13.8152ZM13 16.3152C13 15.9837 12.8683 15.6657 12.6339 15.4313C12.3995 15.1969 12.0815 15.0652 11.75 15.0652C11.4185 15.0652 11.1005 15.1969 10.8661 15.4313C10.6317 15.6657 10.5 15.9837 10.5 16.3152C10.5 16.6467 10.6317 16.9646 10.8661 17.1991C11.1005 17.4335 11.4185 17.5652 11.75 17.5652C12.0815 17.5652 12.3995 17.4335 12.6339 17.1991C12.8683 16.9646 13 16.6467 13 16.3152ZM13 11.3152C13.3315 11.3152 13.6495 11.1835 13.8839 10.9491C14.1183 10.7146 14.25 10.3967 14.25 10.0652C14.25 9.73366 14.1183 9.41572 13.8839 9.1813C13.6495 8.94688 13.3315 8.81519 13 8.81519C12.6685 8.81519 12.3505 8.94688 12.1161 9.1813C11.8817 9.41572 11.75 9.73366 11.75 10.0652C11.75 10.3967 11.8817 10.7146 12.1161 10.9491C12.3505 11.1835 12.6685 11.3152 13 11.3152ZM15.5 13.8152C15.5 13.4837 15.3683 13.1657 15.1339 12.9313C14.8995 12.6969 14.5815 12.5652 14.25 12.5652C13.9185 12.5652 13.6005 12.6969 13.3661 12.9313C13.1317 13.1657 13 13.4837 13 13.8152C13 14.1467 13.1317 14.4646 13.3661 14.6991C13.6005 14.9335 13.9185 15.0652 14.25 15.0652C14.5815 15.0652 14.8995 14.9335 15.1339 14.6991C15.3683 14.4646 15.5 14.1467 15.5 13.8152ZM15.5 8.81519C15.8315 8.81519 16.1495 8.68349 16.3839 8.44907C16.6183 8.21465 16.75 7.89671 16.75 7.56519C16.75 7.23366 16.6183 6.91572 16.3839 6.6813C16.1495 6.44688 15.8315 6.31519 15.5 6.31519C15.1685 6.31519 14.8505 6.44688 14.6161 6.6813C14.3817 6.91572 14.25 7.23366 14.25 7.56519C14.25 7.89671 14.3817 8.21465 14.6161 8.44907C14.8505 8.68349 15.1685 8.81519 15.5 8.81519ZM18 11.3152C18 10.9837 17.8683 10.6657 17.6339 10.4313C17.3995 10.1969 17.0815 10.0652 16.75 10.0652C16.4185 10.0652 16.1005 10.1969 15.8661 10.4313C15.6317 10.6657 15.5 10.9837 15.5 11.3152C15.5 11.6467 15.6317 11.9646 15.8661 12.1991C16.1005 12.4335 16.4185 12.5652 16.75 12.5652C17.0815 12.5652 17.3995 12.4335 17.6339 12.1991C17.8683 11.9646 18 11.6467 18 11.3152ZM19.25 10.0652C19.5815 10.0652 19.8995 9.93349 20.1339 9.69907C20.3683 9.46465 20.5 9.14671 20.5 8.81519C20.5 8.48366 20.3683 8.16572 20.1339 7.9313C19.8995 7.69688 19.5815 7.56519 19.25 7.56519C18.9185 7.56519 18.6005 7.69688 18.3661 7.9313C18.1317 8.16572 18 8.48366 18 8.81519C18 9.14671 18.1317 9.46465 18.3661 9.69907C18.6005 9.93349 18.9185 10.0652 19.25 10.0652Z" fill="currentColor"/>
</g>
<defs>
<clipPath id="clip0_193_14694">
<rect width="20" height="20" fill="white" transform="translate(0.5 0.0651855)"/>
</clipPath>
</defs>
</svg>
