<svg width="26" height="21" viewBox="0 0 26 21" fill="none" xmlns="http://www.w3.org/2000/svg">
<g clip-path="url(#clip0_193_14713)">
<path d="M1.99902 1.44727C2.69043 1.44727 3.24902 2.00586 3.24902 2.69727V12.6973H11.999V6.44727C11.999 5.75586 12.5576 5.19727 13.249 5.19727H21.999C24.0693 5.19727 25.749 6.87695 25.749 8.94727V17.6973C25.749 18.3887 25.1904 18.9473 24.499 18.9473C23.8076 18.9473 23.249 18.3887 23.249 17.6973V16.4473H14.499H13.249H3.24902V17.6973C3.24902 18.3887 2.69043 18.9473 1.99902 18.9473C1.30762 18.9473 0.749023 18.3887 0.749023 17.6973V2.69727C0.749023 2.00586 1.30762 1.44727 1.99902 1.44727ZM7.62402 5.19727C8.45283 5.19727 9.24768 5.52651 9.83373 6.11256C10.4198 6.69861 10.749 7.49346 10.749 8.32227C10.749 9.15107 10.4198 9.94592 9.83373 10.532C9.24768 11.118 8.45283 11.4473 7.62402 11.4473C6.79522 11.4473 6.00037 11.118 5.41431 10.532C4.82826 9.94592 4.49902 9.15107 4.49902 8.32227C4.49902 7.49346 4.82826 6.69861 5.41431 6.11256C6.00037 5.52651 6.79522 5.19727 7.62402 5.19727Z" fill="currentColor"/>
</g>
<defs>
<clipPath id="clip0_193_14713">
<rect width="25" height="20" fill="white" transform="translate(0.749023 0.197266)"/>
</clipPath>
</defs>
</svg>
