<svg width="14" height="4" viewBox="0 0 14 4" fill="none" xmlns="http://www.w3.org/2000/svg">
<path d="M0.0625 1.8725C0.0625 1.42428 0.240553 0.994421 0.55749 0.677485C0.874426 0.360548 1.30428 0.182495 1.7525 0.182495C2.20072 0.182495 2.63057 0.360548 2.94751 0.677485C3.26445 0.994421 3.4425 1.42428 3.4425 1.8725C3.4425 2.32071 3.26445 2.75057 2.94751 3.06751C2.63057 3.38444 2.20072 3.5625 1.7525 3.5625C1.30428 3.5625 0.874426 3.38444 0.55749 3.06751C0.240553 2.75057 0.0625 2.32071 0.0625 1.8725ZM4.89107 1.8725C4.89107 1.42428 5.06912 0.994421 5.38606 0.677485C5.703 0.360548 6.13286 0.182495 6.58107 0.182495C7.02929 0.182495 7.45915 0.360548 7.77608 0.677485C8.09302 0.994421 8.27107 1.42428 8.27107 1.8725C8.27107 2.32071 8.09302 2.75057 7.77608 3.06751C7.45915 3.38444 7.02929 3.5625 6.58107 3.5625C6.13286 3.5625 5.703 3.38444 5.38606 3.06751C5.06912 2.75057 4.89107 2.32071 4.89107 1.8725ZM11.4096 0.182495C11.8579 0.182495 12.2877 0.360548 12.6047 0.677485C12.9216 0.994421 13.0996 1.42428 13.0996 1.8725C13.0996 2.32071 12.9216 2.75057 12.6047 3.06751C12.2877 3.38444 11.8579 3.5625 11.4096 3.5625C10.9614 3.5625 10.5316 3.38444 10.2146 3.06751C9.8977 2.75057 9.71964 2.32071 9.71964 1.8725C9.71964 1.42428 9.8977 0.994421 10.2146 0.677485C10.5316 0.360548 10.9614 0.182495 11.4096 0.182495Z" fill="currentColor"/>
</svg>
