<svg width="17" height="15" viewBox="0 0 17 15" fill="none" xmlns="http://www.w3.org/2000/svg">
<path fill-rule="evenodd" clip-rule="evenodd" d="M14.6614 4.04385C14.6672 4.19375 14.6691 4.34359 14.6691 4.49349C14.6691 9.03824 11.4721 14.2849 5.62588 14.2849C3.83003 14.2849 2.16014 13.7125 0.753174 12.7381C1.00188 12.7654 1.25447 12.7859 1.51092 12.7859C2.99993 12.7859 4.37137 12.2339 5.45922 11.3072C4.0684 11.2868 2.894 10.2851 2.48896 8.9224C2.6834 8.96329 2.88365 8.98379 3.08842 8.98379C3.37718 8.98379 3.65754 8.94295 3.92627 8.86119C2.47086 8.54776 1.37462 7.15779 1.37462 5.48843C1.37462 5.46799 1.37462 5.46114 1.37462 5.44751C1.80356 5.69962 2.2945 5.85626 2.81582 5.8767C1.96182 5.25665 1.40045 4.20055 1.40045 3.00815C1.40045 2.38129 1.55678 1.78847 1.83197 1.27744C3.39914 3.36244 5.74217 4.73201 8.38363 4.8751C8.32936 4.62299 8.30158 4.35733 8.30158 4.09159C8.30158 2.19057 9.72469 0.650635 11.4805 0.650635C12.3946 0.650635 13.2201 1.06633 13.7996 1.73407C14.525 1.58417 15.2046 1.29802 15.8196 0.902822C15.5812 1.70684 15.078 2.38126 14.4204 2.80371C15.0638 2.72194 15.6775 2.53811 16.2466 2.26556C15.8196 2.95375 15.2822 3.56008 14.6614 4.04385Z" fill="currentColor"/>
</svg>
