<svg width="29" height="10" viewBox="0 0 29 10" fill="none" xmlns="http://www.w3.org/2000/svg">
<g clip-path="url(#clip0_2206_13813)">
<path fill-rule="evenodd" clip-rule="evenodd" d="M20.8388 6.63415C20.8448 5.25915 19.7058 4.66115 18.7948 4.18415C18.1838 3.86215 17.6758 3.59515 17.6838 3.18415C17.6908 2.87115 17.9888 2.53815 18.6388 2.45415C19.4005 2.38081 20.1678 2.51452 20.8598 2.84115L21.2558 0.995154C20.5821 0.741867 19.8685 0.610814 19.1488 0.608154C16.9228 0.608154 15.3568 1.79115 15.3418 3.48515C15.3278 4.73815 16.4608 5.43815 17.3138 5.85515C18.1918 6.28115 18.4858 6.55515 18.4828 6.93715C18.4828 7.52215 17.7818 7.77815 17.1348 7.78915C16.0358 7.80515 15.3848 7.50115 14.8678 7.26015L14.8218 7.23915L14.4148 9.14615C14.9408 9.38715 15.9128 9.59815 16.9188 9.60815C19.2858 9.60815 20.8328 8.43915 20.8408 6.63015L20.8388 6.63415ZM11.5098 0.771154L7.86078 9.47715H5.47978L3.68378 2.52815C3.57378 2.10015 3.47978 1.94415 3.14778 1.76315C2.60778 1.46915 1.71378 1.19415 0.925781 1.02315L0.978781 0.763154H4.81178C5.06136 0.764039 5.30243 0.853965 5.49162 1.01675C5.6808 1.17954 5.80568 1.4045 5.84378 1.65115L6.79178 6.68315L9.13478 0.759154L11.5098 0.771154ZM28.7998 9.46815H26.7178L26.4458 8.17415H23.5568L23.0868 9.47515H20.7218L24.1008 1.40815C24.1778 1.21706 24.3103 1.05345 24.4813 0.938474C24.6522 0.823493 24.8538 0.762423 25.0598 0.763154H26.9818L28.7998 9.46815ZM24.2058 6.38415L25.3918 3.11615L26.0678 6.39215L24.2058 6.38415ZM12.8688 9.46915L14.7308 0.763154H12.4758L10.6128 9.46815H12.8688V9.46915Z" fill="currentColor"/>
</g>
<defs>
<clipPath id="clip0_2206_13813">
<rect width="29" height="9" fill="white" transform="translate(0 0.608154)"/>
</clipPath>
</defs>
</svg>
