<svg width="32" height="33" viewBox="0 0 32 33" fill="none" xmlns="http://www.w3.org/2000/svg">
<path d="M16.6666 24.767C16.6666 25.1352 16.3681 25.4337 15.9999 25.4337C15.6317 25.4337 15.3333 25.1352 15.3333 24.767C15.3333 24.3988 15.6317 24.1003 15.9999 24.1003C16.3681 24.1003 16.6666 24.3988 16.6666 24.767Z" stroke="currentColor"/>
<path d="M12.6667 20.1839C13.6022 19.5024 14.7542 19.1003 16.0001 19.1003C17.246 19.1003 18.398 19.5024 19.3334 20.1839" stroke="currentColor" stroke-width="1.5" stroke-linecap="round" stroke-linejoin="round"/>
<path d="M22.2837 15.7372C20.5024 14.4953 18.3364 13.7671 16.0003 13.7671C13.6641 13.7671 11.4981 14.4953 9.7168 15.7372" stroke="currentColor" stroke-width="1.5" stroke-linecap="round" stroke-linejoin="round"/>
<path d="M6.66675 11.3614C9.31236 9.51607 12.5298 8.43384 16.0001 8.43384C19.4703 8.43384 22.6878 9.51607 25.3334 11.3614" stroke="currentColor" stroke-width="1.5" stroke-linecap="round" stroke-linejoin="round"/>
</svg>
